<?xml version="1.0" encoding="utf-8"?>
<!-- Generator: Adobe Illustrator 19.0.0, SVG Export Plug-In . SVG Version: 6.00 Build 0)  -->
<svg version="1.1" id="Calque_1" xmlns="http://www.w3.org/2000/svg" xmlns:xlink="http://www.w3.org/1999/xlink" x="0px" y="0px"
	 viewBox="0 0 42.3 99.2" style="enable-background:new 0 0 42.3 99.2;" xml:space="preserve">
<g id="XMLID_2_">
	<g id="XMLID_9_">
		<path id="XMLID_10_" style="fill:#FFFFFF;" d="M20.4,79.6c0,0,0.2,0.5,0.6,1.3c0.3,0.8,0.7,1.8,1.2,2.9c0.4,1.1,0.8,2.1,1,3
			c0.3,0.8,0.4,1.4,0.4,1.4c0.9,3,1.6,6,2.1,9.2c2.6-2,5-4.3,7.3-6.8c0,0,0.4-0.5,1.1-1.2c0.6-0.7,1.5-1.7,2.3-2.7
			c0.8-1,1.6-2,2.2-2.8c0.6-0.8,1-1.3,1-1.3l-8.2-1.3c0,0,0.1-0.4,0.2-1.1c0.1-0.3,0.1-0.8,0.2-1.2c0-0.3,0.1-0.7,0.1-1.1
			c0.1-0.5,0.1-1,0.2-1.5c0.1-1.1,0.2-2.2,0.3-3.3c0.3-4.6,0.3-10.1-0.3-15.8c-0.6-5.8-1.7-11.9-3.6-17.8
			c-1.8-5.9-4.3-11.7-7.2-16.7c-2.9-5.1-6.1-9.5-9.1-13c-3-3.6-5.9-6.2-7.9-8C2.2-0.1,1-1.1,1-1.1l-1.8,2.2c0,0,1.1,1,3.1,2.7
			c1.9,1.8,4.7,4.3,7.6,7.8c2.9,3.4,6,7.7,8.8,12.5c2.8,4.9,5.2,10.4,6.9,16.2c1.8,5.7,2.9,11.7,3.5,17.3c0.6,5.6,0.6,10.9,0.3,15.4
			c-0.1,1.1-0.2,2.2-0.3,3.2c0,0.5-0.1,1-0.2,1.5c0,0.3-0.1,0.7-0.1,1c-0.1,0.5-0.1,0.9-0.2,1.2c-0.1,0.7-0.2,1-0.2,1L20.4,79.6z"/>
	</g>
</g>
</svg>
