<?xml version="1.0" encoding="utf-8"?>
<!-- Generator: Adobe Illustrator 19.0.0, SVG Export Plug-In . SVG Version: 6.00 Build 0)  -->
<svg version="1.1" id="Calque_1" xmlns="http://www.w3.org/2000/svg" xmlns:xlink="http://www.w3.org/1999/xlink" x="0px" y="0px"
	 viewBox="0 0 125.1 183.1" style="enable-background:new 0 0 125.1 183.1;" xml:space="preserve">
<g id="XMLID_2_">
	<g id="XMLID_9_">
		<path id="XMLID_10_" style="fill:#FFFFFF;" d="M111.8,11.4c0,0-0.4-0.4-1.1-1.1c-0.7-0.6-1.6-1.5-2.5-2.3
			c-1.8-1.7-3.7-3.3-3.7-3.3c-2.5-2.2-5-4.3-7.4-6.4c-0.6,3.2-1.2,6.4-1.8,9.5c0,0-0.5,2.3-1,4.7c-0.3,1.2-0.5,2.3-0.7,3.2
			c-0.2,0.9-0.4,1.4-0.4,1.4l8-2.5c0,0,0.1,0.4,0.3,1c0.1,0.3,0.2,0.7,0.3,1.2c0.4,1.5,0.9,3,1.4,4.6c0.5,2,1.1,4,1.7,6.1
			c2.2,8.6,4.4,18.7,5.7,29.7c1.4,11,2.1,22.8,1.4,34.6c-0.1,2.9-0.4,5.9-0.7,8.8c-0.4,2.9-0.7,5.8-1.2,8.7
			c-1,5.7-2.2,11.3-3.9,16.5c-3.2,10.5-7.9,19.8-13,26.9c-0.3,0.4-0.6,0.9-0.9,1.3c-0.3,0.4-0.7,0.8-1,1.3c-0.6,0.8-1.3,1.6-1.9,2.4
			c-0.7,0.7-1.3,1.5-1.9,2.2c-0.6,0.7-1.2,1.4-1.9,2c-2.5,2.5-4.8,4.6-6.8,6.2c-1,0.8-1.9,1.5-2.7,2.1c-0.8,0.5-1.5,1-2.1,1.4
			c-1.1,0.8-1.7,1.2-1.7,1.2l1.5,2.4c0,0,0.6-0.4,1.8-1.2c0.6-0.4,1.3-0.9,2.2-1.5c0.8-0.6,1.8-1.3,2.8-2.1c2.1-1.6,4.5-3.8,7.1-6.4
			c0.7-0.6,1.3-1.4,1.9-2.1c0.6-0.7,1.3-1.5,2-2.3c0.6-0.8,1.3-1.6,2-2.5c0.3-0.4,0.7-0.9,1-1.3c0.3-0.5,0.6-0.9,1-1.4
			c5.3-7.4,10.1-16.9,13.4-27.7c1.7-5.4,3-11.1,4-16.9c0.5-2.9,0.9-5.9,1.2-8.8c0.3-3,0.6-6,0.7-8.9c0.7-12-0.1-24-1.5-35.1
			c-1.4-11.1-3.6-21.4-5.8-30c-0.6-2.2-1.1-4.2-1.7-6.2c-0.5-1.7-0.9-3.2-1.4-4.7c-0.1-0.5-0.3-0.9-0.4-1.2c-0.2-0.7-0.3-1-0.3-1
			L111.8,11.4z"/>
	</g>
</g>
</svg>
