<?xml version="1.0" encoding="utf-8"?>
<!-- Generator: Adobe Illustrator 19.1.0, SVG Export Plug-In . SVG Version: 6.00 Build 0)  -->
<svg version="1.1" xmlns="http://www.w3.org/2000/svg" xmlns:xlink="http://www.w3.org/1999/xlink" x="0px" y="0px"
	 viewBox="0 0 59.2 59.2" style="enable-background:new 0 0 59.2 59.2;" xml:space="preserve">
<style type="text/css">
	.st0{fill-rule:evenodd;clip-rule:evenodd;fill:#052641;}
	.st1{fill:#052641;}
	.st2{fill:#020525;}
	.st3{fill-rule:evenodd;clip-rule:evenodd;fill:#153347;stroke:#052641;stroke-miterlimit:10;}
	.st4{fill-rule:evenodd;clip-rule:evenodd;fill:#FFD56A;}
	.st5{fill-rule:evenodd;clip-rule:evenodd;fill:#B7D1CF;stroke:#052641;stroke-miterlimit:10;}
	.st6{fill-rule:evenodd;clip-rule:evenodd;fill:#70A3A0;stroke:#052641;stroke-miterlimit:10;}
	.st7{fill-rule:evenodd;clip-rule:evenodd;fill:#DCEAE9;stroke:#052641;stroke-miterlimit:10;}
	.st8{fill-rule:evenodd;clip-rule:evenodd;fill:#93BAB8;stroke:#052641;stroke-miterlimit:10;}
	.st9{fill-rule:evenodd;clip-rule:evenodd;fill:#FFFFFF;}
	.st10{fill-rule:evenodd;clip-rule:evenodd;fill:#4C8B88;stroke:#052641;stroke-miterlimit:10;}
	.st11{fill:none;stroke:#7BC0AC;stroke-width:2;stroke-miterlimit:10;}
	.st12{fill:#020525;stroke:#7BC0AC;stroke-width:2;stroke-miterlimit:10;}
	.st13{fill:none;stroke:#7BC0AC;stroke-miterlimit:10;}
	.st14{fill:#020525;stroke:#7BC0AC;stroke-miterlimit:10;}
	.st15{fill:#102533;}
	.st16{fill:#52B9FF;}
	.st17{fill:#55C2FF;}
	.st18{fill:#353535;}
	.st19{fill:#CCCCCC;}
	.st20{fill:#FFFFFF;}
	.st21{fill:#332916;}
	.st22{fill:#FFD56A;}
	.st23{fill:#33041E;}
	.st24{fill:#FF5076;}
	.st25{fill:#FF527F;}
	.st26{fill:#202033;}
	.st27{fill:#9F9DFF;}
	.st28{fill:#DCEAE9;}
	.st29{fill:none;stroke:#DCEAE9;stroke-width:2;stroke-miterlimit:10;}
	.st30{fill:#4F958A;}
	.st31{clip-path:url(#SVGID_2_);}
	.st32{clip-path:url(#SVGID_4_);}
	.st33{clip-path:url(#SVGID_6_);}
	.st34{clip-path:url(#SVGID_8_);}
	.st35{clip-path:url(#SVGID_10_);}
	.st36{clip-path:url(#SVGID_12_);}
	.st37{clip-path:url(#SVGID_14_);}
	.st38{fill:#FEFEFE;}
	.st39{fill:#BCBCBC;}
	.st40{fill:#90AF9F;}
	.st41{fill:#CC1025;}
	.st42{fill:#00793C;}
	.st43{fill:#FDFDFD;}
	.st44{fill:#55C38A;}
	.st45{fill:#2EB570;}
	.st46{fill:#EC1B23;}
	.st47{fill:#00A550;}
	.st48{fill-opacity:0;}
	.st49{fill:#F7CFA1;}
	.st50{fill:#F2AF60;}
	.st51{fill:#ED8C1A;}
	.st52{fill:#5F9E91;}
	.st53{fill:#EC7F00;}
	.st54{fill:#378676;}
	.st55{fill:#016651;}
	.st56{fill:#CD1025;}
	.st57{fill:#009900;}
	.st58{fill:#FBDE5D;}
	.st59{fill:#FBD018;}
	.st60{fill:#DA0000;}
	.st61{fill:#239F40;}
	.st62{fill:#009775;}
	.st63{fill:#FDFCFC;}
	.st64{fill:#F8CED1;}
	.st65{fill:#F29DA2;}
	.st66{fill:#EE7C83;}
	.st67{fill:#EA5961;}
	.st68{fill:#E73944;}
	.st69{fill:#E31824;}
	.st70{fill:#E20916;}
	.st71{fill:#ABDECA;}
	.st72{fill:#88D1B4;}
	.st73{fill:#70C8A5;}
	.st74{fill:#50BB91;}
	.st75{fill:#009D5F;}
	.st76{fill:#00783B;}
	.st77{fill:#DD5F6D;}
	.st78{fill:#FAFCFB;stroke:#FFFFFF;}
	.st79{fill:#B8E1C5;}
	.st80{fill:#98D3AB;}
	.st81{fill:#73C48D;}
	.st82{fill:#64BE81;}
	.st83{fill:#4EB56F;}
	.st84{fill:#27A450;}
	.st85{fill:#00942F;}
	.st86{fill:#0037B7;}
	.st87{clip-path:url(#SVGID_16_);}
	.st88{opacity:0.5;fill:#4F958A;}
	.st89{clip-path:url(#SVGID_18_);}
	.st90{clip-path:url(#SVGID_20_);}
	.st91{clip-path:url(#SVGID_22_);}
	.st92{clip-path:url(#SVGID_24_);}
	.st93{clip-path:url(#SVGID_26_);}
	.st94{clip-path:url(#SVGID_28_);}
	.st95{fill:#8BD8D4;}
	.st96{fill:#70A3A0;}
	.st97{opacity:0.9;}
	.st98{fill:#BF3C58;}
	.st99{fill:#3D8BBF;}
	.st100{fill:#7777BF;}
	.st101{fill:#BF9D51;}
	.st102{fill:#4F958A;stroke:#DCEAE9;stroke-width:2;stroke-miterlimit:10;}
	.st103{clip-path:url(#SVGID_30_);}
	.st104{fill:#153347;stroke:#C5FFFB;stroke-width:2;stroke-miterlimit:10;}
	.st105{clip-path:url(#SVGID_32_);}
	.st106{clip-path:url(#SVGID_34_);}
	.st107{clip-path:url(#SVGID_36_);}
	.st108{clip-path:url(#SVGID_38_);}
	.st109{clip-path:url(#SVGID_40_);}
	.st110{clip-path:url(#SVGID_42_);}
	.st111{clip-path:url(#SVGID_44_);}
	.st112{clip-path:url(#SVGID_46_);}
	.st113{clip-path:url(#SVGID_48_);}
	.st114{clip-path:url(#SVGID_50_);}
	.st115{clip-path:url(#SVGID_52_);}
	.st116{clip-path:url(#SVGID_54_);}
	.st117{clip-path:url(#SVGID_56_);}
	.st118{fill:none;stroke:#000000;stroke-miterlimit:10;}
</style>
<g id="background">
</g>
<g id="planisphere_x5F_blank">
</g>
<g id="Calque_3">
</g>
<g id="logos">
	<g>
		<g>
			<circle class="st18" cx="29.6" cy="29.3" r="27.1"/>
			<path class="st19" d="M29.6,0C13.2,0,0,13.2,0,29.6s13.2,29.6,29.6,29.6s29.6-13.2,29.6-29.6S45.9,0,29.6,0z M29.6,55.3
				c-14.2,0-25.7-11.5-25.7-25.7S15.4,3.9,29.6,3.9c14.2,0,25.7,11.5,25.7,25.7S43.8,55.3,29.6,55.3z"/>
		</g>
		<g>
			<path class="st20" d="M23.1,10.9c0.2,0,0.4,0,0.7,0c0.7,0.3,1.4,0.5,2,0.8c1.4,0.7,2.9,0.8,4.4,0.3c1.3-0.4,2.6-0.7,4-0.9
				c1.3-0.2,1.5,0,1.3,1.3c-0.4,2.1-1.4,3.8-2.7,5.5c-0.3,0.4-0.7,0.8-1,1.1c1,0.6,2,1.1,2.9,1.8c2.9,2.1,5.3,4.8,7.2,7.9
				c1.7,2.7,3,5.6,3.3,8.8c0.2,1.7,0,3.4-0.8,5c-1,2-2.7,3.3-4.7,4.2c-2.6,1.1-5.4,1.4-8.1,1.5c-2.2,0.1-4.5,0-6.7-0.3
				c-2.1-0.3-4.1-0.8-5.9-1.8c-2.4-1.4-4-3.4-4.4-6.2c-0.3-2.1,0-4.1,0.6-6.1c1.2-3.7,3.2-7,5.8-9.9c1.5-1.7,3.1-3.1,5-4.2
				c0.2-0.1,0.4-0.2,0.6-0.3c-0.2-0.1-0.3-0.2-0.4-0.3c-2-1.6-3.3-3.5-3.8-6C21.8,11.9,22.1,11.4,23.1,10.9z M28.5,27.6
				c-0.5,0.1-0.9,0.2-1.2,0.4c-0.4,0.2-0.7,0.4-1.1,0.6c-1.6,1.2-1.8,4,0.4,5.1c0.5,0.3,1,0.4,1.6,0.6c0.2,0.1,0.3,0.2,0.3,0.4
				c0,1,0,2,0,3c0,0.1,0,0.2,0,0.3c-0.9-0.3-1.4-0.8-1.7-1.6c-0.2-0.6-0.7-0.9-1.2-0.7C25,35.9,24.8,36.4,25,37
				c0.4,1.4,1.4,2.3,2.7,2.8c0.3,0.1,0.6,0.1,0.8,0.3c0.1,0.2,0,0.6,0.1,0.9c0,0.6,0.4,1,0.9,1c0.6,0,0.9-0.4,1-1.1
				c0-0.3,0-0.6,0-0.7c0.7-0.2,1.3-0.3,1.9-0.6c1.3-0.6,2-1.7,2-3.2c0-1.4-0.8-2.3-2.1-2.9c-0.5-0.2-1-0.3-1.5-0.5
				c-0.2-0.1-0.3-0.1-0.3-0.4c0-0.8,0-1.6,0-2.4c0-0.2,0-0.5,0-0.7c0.9,0.1,1.6,0.6,1.9,1.4c0.2,0.5,0.7,0.8,1.2,0.7
				c0.5-0.1,0.8-0.6,0.6-1.2c-0.3-0.9-0.8-1.7-1.7-2.1c-0.6-0.3-1.3-0.5-2-0.8c0-0.2,0-0.5,0-0.7c0-0.7-0.4-1.1-0.9-1.1
				c-0.6,0-0.9,0.4-0.9,1.1C28.5,27.1,28.5,27.3,28.5,27.6z"/>
			<path class="st20" d="M30.4,38.3c0-1.2,0-2.3,0-3.4c0.6,0.2,1.2,0.3,1.6,0.7c0.6,0.5,0.5,1.5-0.2,2C31.4,37.9,30.9,38,30.4,38.3z
				"/>
			<path class="st20" d="M28.5,29.6c0,1,0,1.9,0,2.9c-0.8,0-1.6-0.6-1.6-1.3C26.8,30.3,27.5,29.7,28.5,29.6z"/>
		</g>
	</g>
</g>
<g id="Calque_5">
</g>
<g id="Calque_6">
</g>
</svg>
