<?xml version="1.0" encoding="utf-8"?>
<!-- Generator: Adobe Illustrator 19.1.0, SVG Export Plug-In . SVG Version: 6.00 Build 0)  -->
<svg version="1.1" id="Calque_1" xmlns="http://www.w3.org/2000/svg" xmlns:xlink="http://www.w3.org/1999/xlink" x="0px" y="0px"
	 viewBox="0 0 275.1 134.3" style="enable-background:new 0 0 275.1 134.3;" xml:space="preserve">
<style type="text/css">
	.st0{fill:#FFD56C;}
	.st1{fill:#BAE3FA;}
	.st2{fill:#102533;}
	.st3{fill:#EA5581;}
	.st4{fill:#9898CB;}
	.st5{fill:#202033;}
	.st6{fill:#FFFFFF;}
	.st7{fill:#CDCCCC;}
	.st8{fill:#9E9E9E;}
	.st9{fill:#6E6E6E;}
</style>
<g>
	<path class="st0" d="M275.1,134.2c-7.2,0-14.4,0-21.9,0c0-11.8,0-23.4,0-35.2c-77.1,0-154,0.1-231,0.1c0,11.6,0,23.2,0,35.2
		c-7.5,0-14.8,0-22.1,0C0,91.9,0,49.6,0,7.3c0.4-0.7,0.8-1.4,1.3-2.1c2.3-3.6,6.9-5.7,11.4-5.1c4.8,0.7,8.8,4.2,9.2,8.2
		C22,9.1,22,10,22,10.9c0,22.5,0,45,0,67.6c0,0.9,0,1.7,0,2.9c0.9,0,1.8,0,2.6,0c82.9,0,165.9-0.1,248.8-0.1c0.5,0,1.1,0,1.6-0.1
		C275,98.9,275,116.5,275.1,134.2z"/>
	<path class="st0" d="M269.7,97.7c-1.2,0-2.3-0.1-3.5-0.1c-74.2,0-148.4,0.1-222.6,0.1c-1.9,0-3.8-0.1-5.6-0.5
		c-4.1-0.8-6.3-3.6-6.2-7.8c0-4.2,2.1-6.9,6.3-7.7c1.7-0.3,3.4-0.5,5.1-0.5c13.1,0,26.1,0,39.6,0c0-1,0-2,0-2.9c0-9,0-18.1,0-27.1
		c0-7.7,4.9-12,12.6-11.2c19.8,2,39.7,3.9,59.5,5.8c21.1,2.1,42.2,4.2,63.3,6.2c11.4,1.1,22.8,2.1,34.2,3.4c2.6,0.3,5.2,1.1,7.7,2
		c5,1.9,8,5.8,9.6,10.8C269.7,78,269.7,87.8,269.7,97.7z"/>
	<path class="st0" d="M31.2,49.1c0-11,9-20,20-20c11.2-0.1,20.7,9.1,20.7,20c0,10.9-9.4,20.1-20.6,20.1
		C40.3,69.2,31.2,60.2,31.2,49.1z"/>
</g>
</svg>
