<?xml version="1.0" encoding="utf-8"?>
<!-- Generator: Adobe Illustrator 19.1.0, SVG Export Plug-In . SVG Version: 6.00 Build 0)  -->
<svg version="1.1" id="Calque_1" xmlns="http://www.w3.org/2000/svg" xmlns:xlink="http://www.w3.org/1999/xlink" x="0px" y="0px"
	 viewBox="0 0 253.6 126.9" style="enable-background:new 0 0 253.6 126.9;" xml:space="preserve">
<style type="text/css">
	.st0{fill:#FFD56C;}
	.st1{fill:#BAE3FA;}
	.st2{fill:#102533;}
	.st3{fill:#EA5581;}
	.st4{fill:#9898CB;}
	.st5{fill:#202033;}
	.st6{fill:#FFFFFF;}
	.st7{fill:#CDCCCC;}
	.st8{fill:#9E9E9E;}
	.st9{fill:#6E6E6E;}
</style>
<path class="st3" d="M0,74.3c1-4,1.6-8.1,3-11.9c4.1-11.9,12-21.2,21.6-29c5.4-4.4,11.4-8.2,17.2-12c4.2-2.8,7.8-1.5,9.7,3.1
	c5.1,12,9.1,24.4,11.8,37.2c0.1,0.6,0.1,1.2,0.4,1.7c0.5,0.7,1.2,1.3,1.9,2c0.6-0.7,1.6-1.3,1.7-2.1C69,50,69.4,36.7,68.2,23.5
	c-0.3-2.6-0.6-5.2-0.9-7.9c-0.6-4.5-0.3-4.9,3.8-6.6c10.9-4.6,22.5-6.3,34.2-7.5c3-0.3,4.8,0.9,6.2,3.4
	c6.7,12.5,11.4,25.7,15.9,39.1c2.2,6.6,4.1,13.4,6.3,20c0.3,0.9,1.5,1.6,2.2,2.4c0.5-0.9,1.5-1.8,1.5-2.7c1.8-19.1,1.8-38-2.4-56.9
	c-1-4.7,0.9-7.1,5.6-6.9c12.5,0.6,24.7,2.7,36.8,6.1c1.4,0.4,2.8,1.8,3.5,3.1c8.6,16.7,15.1,34.2,18.9,52.6c0.1,0.3,0.1,0.7,0.2,0.9
	c0.6,0.7,1.3,1.4,1.9,2.1c0.6-0.8,1.7-1.5,1.7-2.3c0.6-7.2,1.3-14.5,1.5-21.7c0.2-4.9-0.2-9.9-0.4-14.8c-0.1-2.1,0.5-3.8,2.4-4.8
	c1.8-1,3.7-0.9,5.4,0.2c11.7,7.9,22.9,16.5,31.2,28.2c9.1,12.8,12.8,26.7,7.6,42.1c-3.3,9.9-10.6,16.3-19.6,21
	c-11.3,5.9-23.6,8.6-36.2,10.4c-28.2,4.1-56.6,3.8-85,3.4c-14.9-0.2-29.8-1.2-44.7-2.5C50.8,122.9,36,120,22.3,113
	c-11.1-5.7-19-14-21.5-26.7c-0.2-1.2-0.5-2.4-0.8-3.5C0,80,0,77.2,0,74.3z"/>
</svg>
