<?xml version="1.0" encoding="utf-8"?>
<!-- Generator: Adobe Illustrator 19.1.0, SVG Export Plug-In . SVG Version: 6.00 Build 0)  -->
<svg version="1.1" id="Calque_1" xmlns="http://www.w3.org/2000/svg" xmlns:xlink="http://www.w3.org/1999/xlink" x="0px" y="0px"
	 viewBox="0 0 278.2 111.7" style="enable-background:new 0 0 278.2 111.7;" xml:space="preserve">
<style type="text/css">
	.st0{fill:#FFD56C;}
	.st1{fill:#BAE3FA;}
	.st2{fill:#102533;}
	.st3{fill:#EA5581;}
	.st4{fill:#9898CB;}
	.st5{fill:#202033;}
	.st6{fill:#FFFFFF;}
	.st7{fill:#CDCCCC;}
	.st8{fill:#9E9E9E;}
	.st9{fill:#6E6E6E;}
</style>
<g>
	<g>
		<path class="st4" d="M180,101.2c11.5-12.2,23-24.5,34.5-36.7c1.9-2.1,3.9-4.1,5.9-6.1c1.7-1.8,1.7-3.3,0-5.1
			c-8.6-9.1-17.3-18.2-25.9-27.3c-6.4-6.8-12.6-13.7-19-20.5c-0.2-0.3-0.1-0.9-0.4-1.2c-1.5-1.5-2.9-2.9-4.4-4.4
			c-1.3,0.1-2.4,0-3.4,0C113.1,0.1,58.9,0.2,4.7,0.2c-1.1,0-2,0.4-3.3,0.3C1,1,0.5,1.5,0.1,1.9c0,29.8,0,59.6,0,89.4
			c0,5.5,0,10.9,0,16.4c0,3.2,0.8,4,4,4c54.6,0,109.2,0,163.7,0c0.9,0,1.5-0.4,2.7-0.1c1.5-1.5,2.9-2.9,4.4-4.4
			C176.7,105.3,178.2,103.1,180,101.2z M156,67.1c-6.2-6.2-6.2-16.1,0-22.4c6.2-6.2,16.3-6.2,22.4,0c6.1,6.2,6.1,16.4,0,22.4
			C172.2,73.3,162.2,73.3,156,67.1z"/>
	</g>
	<path class="st5" d="M274.9,85c4.5-9.4,4.6-19.7-0.6-28.9c-4.8-8.4-12.7-15.3-20.6-20.7c-15.1-10.4-35.1-14.5-52.2-7.7L212,38.9
		c0.5-0.1,1.1-0.2,1.6-0.3c0.4-0.1,0.8-0.1,1.2-0.2c0.1,0,0.1,0,0.1,0c0,0,0.1,0,0.1,0c2-0.1,3.9-0.3,5.9-0.2c0.9,0,1.8,0.1,2.6,0.1
		c0.4,0,0.8,0.1,1.2,0.1c0.1,0,0.2,0,0.3,0c0.1,0,0.2,0,0.3,0.1c1.9,0.3,3.7,0.7,5.6,1.2c1,0.3,1.9,0.6,2.9,0.9
		c0.5,0.2,1.1,0.4,1.6,0.6c0.2,0.1,0.7,0.3,0.9,0.3c2,0.9,3.9,1.8,5.7,2.9c1.8,1,3.5,2.1,5.2,3.3c0.4,0.3,0.7,0.5,1.1,0.8
		c-0.1-0.1,0.7,0.5,1,0.7c0.3,0.3,0.8,0.7,0.8,0.6c0.5,0.4,1.1,0.9,1.6,1.3c3.1,2.7,5.9,5.6,8.6,8.8c0,0,0,0,0,0
		c0.3,0.4,0.6,0.8,0.9,1.3c0.5,0.8,1,1.6,1.4,2.4c0.2,0.4,0.4,0.7,0.6,1.1c0.1,0.1,0.5,1.3,0.5,1.1c0.3,0.8,0.5,1.6,0.7,2.4
		c0.1,0.2,0.1,0.5,0.1,0.7c0,0.2,0.1,0.7,0.1,0.9c0.1,0.9,0,1.9,0,2.8c0,0.1,0,0.2,0,0.3c0,0,0,0.1,0,0.1c-0.1,0.5-0.2,1-0.3,1.5
		c-0.2,0.9-0.5,1.7-0.8,2.5c-0.1,0.1-0.2,0.6-0.3,0.8c-0.2,0.4-0.4,0.9-0.6,1.3c-0.4,0.7-0.7,1.3-1.1,2c-0.3,0.4-0.5,0.8-0.8,1.2
		c-0.1,0.1-0.3,0.3-0.4,0.5c-0.5,0.6-1,1.2-1.5,1.8c-0.7,0.7-1.3,1.3-2.1,2c-0.3,0.3-1.2,1-1.2,1c-1.4,1-2.9,1.9-4.4,2.7
		c-0.9,0.5-1.7,0.9-2.6,1.3c0,0,0,0-0.1,0c-0.4,0.2-0.8,0.3-1.3,0.5c-1.8,0.6-3.7,1.1-5.6,1.5c-0.5,0.1-1,0.2-1.4,0.3
		c-0.1,0-0.3,0-0.4,0.1c-0.7,0.1-1.5,0.1-2.2,0.2c-2,0.1-4,0.1-6-0.1c-0.5,0-0.9-0.1-1.4-0.1c-0.1,0-0.2,0-0.2,0
		c-1-0.2-2-0.3-3.1-0.6c-1.9-0.4-3.8-0.9-5.7-1.6c-0.9-0.3-1.8-0.6-2.6-0.9c-0.1,0-0.2-0.1-0.3-0.1c0,0-0.1,0-0.1,0
		c-0.5-0.2-1-0.4-1.4-0.6c-1.9-0.9-3.8-1.8-5.6-2.8c-3.5-1.9-6.8-4.1-10-6.5c0,0-0.1,0-0.1-0.1c-0.4-0.3-0.8-0.6-1.2-1
		c-0.6-0.5-1.2-1-1.8-1.5c-1.2-1.1-2.5-2.2-3.7-3.3C184,65.1,175,54.3,165.3,44.3c-2.2,0.5-4.3,1.7-6.1,3.4c-1.8,1.9-3,4.1-3.5,6.5
		c9.3,9.6,17.9,19.8,27.6,29.1c12.8,12.2,28.7,22.1,46.6,24.1C247.2,109.3,267,101.3,274.9,85z M260.2,59.8
		C259.4,58.9,260,59.5,260.2,59.8L260.2,59.8z M201,80.4C201.3,80.6,201.8,81,201,80.4L201,80.4z M248.1,91.4
		C247.6,91.7,247.8,91.6,248.1,91.4L248.1,91.4z"/>
</g>
</svg>
