<?xml version="1.0" encoding="utf-8"?>
<!-- Generator: Adobe Illustrator 19.1.0, SVG Export Plug-In . SVG Version: 6.00 Build 0)  -->
<svg version="1.1" id="Calque_1" xmlns="http://www.w3.org/2000/svg" xmlns:xlink="http://www.w3.org/1999/xlink" x="0px" y="0px"
	 viewBox="0 0 59.2 59.2" style="enable-background:new 0 0 59.2 59.2;" xml:space="preserve">
<style type="text/css">
	.st0{fill:#425250;}
	.st1{fill:#ACD3D0;}
	.st2{fill:#DCEAE9;}
	.st3{clip-path:url(#SVGID_2_);}
	.st4{clip-path:url(#SVGID_4_);}
	.st5{clip-path:url(#SVGID_6_);}
	.st6{clip-path:url(#SVGID_8_);}
	.st7{clip-path:url(#SVGID_10_);}
	.st8{clip-path:url(#SVGID_12_);}
	.st9{clip-path:url(#SVGID_14_);}
	.st10{fill:#6BC4CA;}
</style>
<g>
	<circle class="st0" cx="29.6" cy="29.3" r="27.1"/>
	<path class="st1" d="M29.6,0C13.2,0,0,13.2,0,29.6s13.2,29.6,29.6,29.6s29.6-13.2,29.6-29.6S45.9,0,29.6,0z M29.6,55.3
		c-14.2,0-25.7-11.5-25.7-25.7S15.4,3.9,29.6,3.9c14.2,0,25.7,11.5,25.7,25.7S43.8,55.3,29.6,55.3z"/>
	<path class="st1" d="M43.5,17.4c-0.2,0.7-0.4,1.4-0.7,2c-0.6,1.5-1.6,2.7-2.7,3.8c-1.2,1.3-2.5,2.5-3.8,3.7
		c-0.1,0.1-0.2,0.2-0.1,0.3c0.3,1.1,0.7,2.2,1,3.4c0.1,0,0.1-0.1,0.2-0.1c0.3-0.2,0.6-0.2,0.9,0.1c0.3,0.2,0.5,0.5,0.8,0.8
		c0.3,0.3,0.2,0.7,0,1c-0.2,0.2-0.5,0.5-0.7,0.7c-0.3,0.3-0.3,0.3-0.1,0.8c0.5-0.3,0.9-0.1,1.2,0.3c0.1,0.1,0.3,0.3,0.4,0.4
		c0.3,0.4,0.3,0.8,0,1.1c-0.2,0.2-0.5,0.5-0.7,0.7c-0.1,0.1-0.2,0.2-0.1,0.4c0.3,1.1,0.6,2.1,1,3.2c0.1,0.5,0.1,0.9-0.3,1.2
		c-0.4,0.3-0.7,0.7-1.1,1.1c-0.5,0.5-1,0.4-1.3-0.2c-1.4-2.4-2.7-4.9-4.1-7.3c-0.1-0.2-0.3-0.4-0.4-0.6c-0.7-0.7-1.3-1.3-2-2
		c-0.5,0.5-1,1-1.6,1.5c-1.6,1.4-3.2,2.7-4.7,4c-0.1,0.1-0.2,0.2-0.2,0.4c0.2,1.8,0.3,3.6,0.5,5.4c0.1,0.5,0,0.9-0.4,1.3
		c-0.1,0.1-0.3,0.3-0.4,0.4c-0.4,0.4-1,0.3-1.2-0.2c-0.5-1-0.9-2-1.4-2.9c-0.1-0.3-0.3-0.6-0.5-0.9c-0.1-0.2-0.3-0.4-0.4-0.6
		c-0.1-0.1-0.2-0.1-0.3-0.1c-1.2,0.4-2-0.4-1.6-1.6c0-0.1,0-0.2-0.1-0.3c-0.2-0.2-0.4-0.3-0.6-0.4c-1.3-0.6-2.5-1.2-3.8-1.8
		c-0.6-0.3-0.7-0.8-0.2-1.3c0.9-0.9,0.9-0.9,2.2-0.8c1.6,0.2,3.2,0.3,4.8,0.4c0.1,0,0.3-0.1,0.4-0.2c1.7-2.1,3.5-4.2,5.3-6.1
		c0.1-0.1,0.1-0.1,0.2-0.2c-0.3-0.3-0.7-0.6-1-1C25,26.3,24,25.6,22.9,25c-2-1.1-3.9-2.2-5.9-3.3c-0.6-0.4-0.7-0.8-0.2-1.4
		c0.3-0.3,0.7-0.7,1-1c0.4-0.4,0.8-0.5,1.2-0.3c1.1,0.3,2.1,0.6,3.2,1c0.2,0.1,0.3,0,0.5-0.1c0.2-0.2,0.4-0.4,0.6-0.6
		c0.5-0.5,0.9-0.5,1.4,0c0.1,0.1,0.3,0.3,0.4,0.4c0.4,0.4,0.4,0.6,0.2,1.1c0.4,0.2,0.4,0.2,0.8-0.1c0.2-0.2,0.4-0.5,0.7-0.7
		c0.3-0.3,0.7-0.3,1.1,0c0.3,0.2,0.5,0.5,0.8,0.8c0.3,0.3,0.2,0.7-0.1,1c0.8,0.2,1.6,0.5,2.4,0.7c0.2,0.1,0.4,0.1,0.6,0.2
		c0.4,0.2,0.6,0,0.9-0.2c1.4-1.4,2.8-2.9,4.2-4.2c1.2-1.1,2.6-2,4.2-2.5c0.3-0.1,0.6-0.1,0.9-0.2c0.2,0,0.4,0,0.6,0
		c0.1,0,0.1,0,0.2,0.1c0.5,0.1,0.8,0.4,0.9,0.9c0,0.1,0,0.1,0.1,0.2C43.5,17,43.5,17.2,43.5,17.4z"/>
</g>
</svg>
