<?xml version="1.0" encoding="utf-8"?>
<!-- Generator: Adobe Illustrator 19.1.0, SVG Export Plug-In . SVG Version: 6.00 Build 0)  -->
<svg version="1.1" xmlns="http://www.w3.org/2000/svg" xmlns:xlink="http://www.w3.org/1999/xlink" x="0px" y="0px"
	 viewBox="0 0 59.2 59.2" style="enable-background:new 0 0 59.2 59.2;" xml:space="preserve">
<style type="text/css">
	.st0{fill-rule:evenodd;clip-rule:evenodd;fill:#052641;}
	.st1{fill:#052641;}
	.st2{fill-rule:evenodd;clip-rule:evenodd;fill:#153347;stroke:#052641;stroke-miterlimit:10;}
	.st3{fill-rule:evenodd;clip-rule:evenodd;fill:#FFD56A;}
	.st4{fill-rule:evenodd;clip-rule:evenodd;fill:#B7D1CF;stroke:#052641;stroke-miterlimit:10;}
	.st5{fill-rule:evenodd;clip-rule:evenodd;fill:#70A3A0;stroke:#052641;stroke-miterlimit:10;}
	.st6{fill-rule:evenodd;clip-rule:evenodd;fill:#DCEAE9;stroke:#052641;stroke-miterlimit:10;}
	.st7{fill-rule:evenodd;clip-rule:evenodd;fill:#93BAB8;stroke:#052641;stroke-miterlimit:10;}
	.st8{fill-rule:evenodd;clip-rule:evenodd;fill:#FFFFFF;}
	.st9{fill-rule:evenodd;clip-rule:evenodd;fill:#4C8B88;stroke:#052641;stroke-miterlimit:10;}
	.st10{fill:#7BC0AC;}
	.st11{fill:#020525;stroke:#7BC0AC;stroke-miterlimit:10;}
	.st12{fill:none;stroke:#7BC0AC;stroke-width:2;stroke-miterlimit:10;}
	.st13{fill:#020525;stroke:#7BC0AC;stroke-width:2;stroke-miterlimit:10;}
	.st14{fill:none;stroke:#7BC0AC;stroke-miterlimit:10;}
	.st15{fill:#FFD56A;}
	.st16{fill:#40351B;}
	.st17{fill:#F261A9;}
	.st18{fill:#265378;}
	.st19{fill:#4BA5EF;}
	.st20{fill:#353535;}
	.st21{fill:#CCCCCC;}
	.st22{fill:#36041D;}
	.st23{fill:#F04A68;}
	.st24{fill:#282740;}
	.st25{fill:#9F9DFF;}
	.st26{fill:#102533;}
	.st27{fill:#52B9FF;}
	.st28{fill:#55C2FF;}
	.st29{fill:#332916;}
	.st30{fill:#FFFFFF;}
	.st31{fill:#33041E;}
	.st32{fill:#FF5076;}
	.st33{fill:#FF527F;}
	.st34{fill:#202033;}
	.st35{opacity:0.9;fill:#295C7F;}
	.st36{opacity:0.9;fill:#3D8BBF;}
	.st37{opacity:0.9;fill:#7F673B;}
	.st38{opacity:0.9;fill:#BF9D51;}
	.st39{opacity:0.9;fill:#353535;}
	.st40{opacity:0.9;fill:#CCCCCC;}
	.st41{opacity:0.9;fill:#33041E;}
	.st42{opacity:0.9;fill:#BF3C58;}
	.st43{opacity:0.9;fill:#50507F;}
	.st44{opacity:0.9;fill:#7777BF;}
	.st45{fill:#DCEAE9;}
	.st46{fill:none;stroke:#DCEAE9;stroke-width:2;stroke-miterlimit:10;}
	.st47{fill:#4F958A;}
	.st48{clip-path:url(#SVGID_2_);}
	.st49{clip-path:url(#SVGID_4_);}
	.st50{clip-path:url(#SVGID_6_);}
	.st51{clip-path:url(#SVGID_8_);}
	.st52{clip-path:url(#SVGID_10_);}
	.st53{clip-path:url(#SVGID_12_);}
	.st54{clip-path:url(#SVGID_14_);}
	.st55{fill:#FEFEFE;}
	.st56{fill:#BCBCBC;}
	.st57{fill:#90AF9F;}
	.st58{fill:#CC1025;}
	.st59{fill:#00793C;}
	.st60{fill:#FDFDFD;}
	.st61{fill:#55C38A;}
	.st62{fill:#2EB570;}
	.st63{fill:#EC1B23;}
	.st64{fill:#00A550;}
	.st65{fill-opacity:0;}
	.st66{fill:#F7CFA1;}
	.st67{fill:#F2AF60;}
	.st68{fill:#ED8C1A;}
	.st69{fill:#5F9E91;}
	.st70{fill:#EC7F00;}
	.st71{fill:#378676;}
	.st72{fill:#016651;}
	.st73{fill:#CD1025;}
	.st74{fill:#009900;}
	.st75{fill:#FBDE5D;}
	.st76{fill:#FBD018;}
	.st77{fill:#DA0000;}
	.st78{fill:#239F40;}
	.st79{fill:#009775;}
	.st80{fill:#FDFCFC;}
	.st81{fill:#F8CED1;}
	.st82{fill:#F29DA2;}
	.st83{fill:#EE7C83;}
	.st84{fill:#EA5961;}
	.st85{fill:#E73944;}
	.st86{fill:#E31824;}
	.st87{fill:#E20916;}
	.st88{fill:#ABDECA;}
	.st89{fill:#88D1B4;}
	.st90{fill:#70C8A5;}
	.st91{fill:#50BB91;}
	.st92{fill:#009D5F;}
	.st93{fill:#00783B;}
	.st94{fill:#DD5F6D;}
	.st95{fill:#FAFCFB;stroke:#FFFFFF;}
	.st96{fill:#B8E1C5;}
	.st97{fill:#98D3AB;}
	.st98{fill:#73C48D;}
	.st99{fill:#64BE81;}
	.st100{fill:#4EB56F;}
	.st101{fill:#27A450;}
	.st102{fill:#00942F;}
	.st103{fill:#0037B7;}
	.st104{clip-path:url(#SVGID_16_);}
	.st105{opacity:0.5;fill:#4F958A;}
	.st106{clip-path:url(#SVGID_18_);}
	.st107{clip-path:url(#SVGID_20_);}
	.st108{clip-path:url(#SVGID_22_);}
	.st109{clip-path:url(#SVGID_24_);}
	.st110{clip-path:url(#SVGID_26_);}
	.st111{clip-path:url(#SVGID_28_);}
	.st112{fill:#8BD8D4;}
	.st113{fill:#70A3A0;}
	.st114{opacity:0.9;}
	.st115{fill:#7F673B;}
	.st116{fill:#BF9D51;}
	.st117{fill:#BF3C58;}
	.st118{fill:#3D8BBF;}
	.st119{fill:#7777BF;}
	.st120{fill:#4F958A;stroke:#DCEAE9;stroke-width:2;stroke-miterlimit:10;}
	.st121{clip-path:url(#SVGID_30_);}
	.st122{fill:#153347;stroke:#C5FFFB;stroke-width:2;stroke-miterlimit:10;}
	.st123{clip-path:url(#SVGID_32_);}
	.st124{clip-path:url(#SVGID_34_);}
	.st125{clip-path:url(#SVGID_36_);}
	.st126{clip-path:url(#SVGID_38_);}
	.st127{clip-path:url(#SVGID_40_);}
	.st128{clip-path:url(#SVGID_42_);}
	.st129{clip-path:url(#SVGID_44_);}
	.st130{clip-path:url(#SVGID_46_);}
	.st131{clip-path:url(#SVGID_48_);}
	.st132{clip-path:url(#SVGID_50_);}
	.st133{clip-path:url(#SVGID_52_);}
	.st134{clip-path:url(#SVGID_54_);}
	.st135{clip-path:url(#SVGID_56_);}
	.st136{clip-path:url(#SVGID_58_);}
</style>
<g id="background">
</g>
<g id="planisphere_x5F_blank">
</g>
<g id="Calque_3">
</g>
<g id="logos">
	<g>
		<g>
			<circle class="st26" cx="29.5" cy="29.3" r="27.1"/>
			<path class="st27" d="M29.6,0C13.2,0,0,13.2,0,29.6s13.2,29.6,29.6,29.6s29.6-13.2,29.6-29.6S45.9,0,29.6,0z M29.6,55.3
				c-14.2,0-25.7-11.5-25.7-25.7S15.4,3.9,29.6,3.9c14.2,0,25.7,11.5,25.7,25.7S43.8,55.3,29.6,55.3z"/>
		</g>
		<path class="st28" d="M36.7,13c0.8,0.2,1.5,0.6,2.2,1.2c0.9,0.8,1.4,1.8,1.4,3.1c0,5.6,0,11.2,0,16.8c0,1.4-0.5,2.5-1.8,3.3
			c-0.4,0.2-0.8,0.5-1.2,0.7c-0.4,0.2-0.4,0.2-0.2,0.6c1.3,2,2.6,4,3.9,5.9c0.3,0.5,0.7,1,1,1.6c-0.7,0-1.4-0.1-2,0
			c-0.8,0.1-1.2-0.2-1.6-0.8c-1-1.5-2-3-3-4.4c-0.1-0.2-0.3-0.2-0.5-0.2c-3.3,0-6.5,0-9.8,0c-0.2,0-0.3,0.1-0.5,0.2
			c-1.1,1.7-2.3,3.3-3.4,5c-0.1,0.2-0.3,0.3-0.5,0.3c-0.9,0-1.7,0-2.7,0c1.7-2.6,3.5-5.2,5.2-7.9c-0.3-0.1-0.6-0.3-0.9-0.4
			c-1.4-0.5-2.5-2.2-2.5-3.6c0-5.7,0-11.3,0-17c0-1.8,0.9-3,2.4-3.9c0.4-0.2,0.8-0.3,1.2-0.5C27.8,13,32.3,13,36.7,13z M30,17.6
			c-1.9,0-3.9,0-5.8,0c-0.3,0-0.6,0.1-0.8,0.2c-0.7,0.4-1.2,1.1-1.2,1.9c0,1,0,2,0,3c-0.1,1.5,0.9,2.3,2.4,2.4c2.1,0,4.2,0,6.2,0
			c1.6,0,3.3,0,4.9,0c1,0,2.2-1,2.1-2.1c-0.1-1.1,0-2.3,0-3.4c0-1.1-0.9-2-2-2C33.8,17.6,31.9,17.6,30,17.6z M30.1,16.7
			c0.8,0,1.5,0,2.3,0c0.4,0,0.6-0.2,0.6-0.6c0-0.5,0-1,0-1.5c0-0.5-0.2-0.7-0.7-0.7c-1.5,0-3,0-4.5,0c-0.5,0-0.7,0.3-0.7,0.7
			c0,0.4,0,0.9,0,1.3c0,0.4,0.3,0.7,0.8,0.7C28.5,16.7,29.3,16.7,30.1,16.7z M35.8,31.8c-1.2,0-2,0.8-2,2c0,1.2,0.9,2.1,2,2.1
			c1.1,0,2-0.9,2-2.1C37.7,32.6,36.9,31.8,35.8,31.8z M24.2,31.8c-1.1,0-2,0.9-2,2c0,1.2,0.8,2.1,2,2.1c1.1,0,2-0.9,2.1-2.1
			C26.3,32.6,25.4,31.8,24.2,31.8z"/>
	</g>
</g>
<g id="Calque_5">
</g>
<g id="Calque_6">
</g>
</svg>
