<?xml version="1.0" encoding="utf-8"?>
<!-- Generator: Adobe Illustrator 19.1.0, SVG Export Plug-In . SVG Version: 6.00 Build 0)  -->
<svg version="1.1" xmlns="http://www.w3.org/2000/svg" xmlns:xlink="http://www.w3.org/1999/xlink" x="0px" y="0px"
	 viewBox="0 0 841.9 369" style="enable-background:new 0 0 841.9 369;" xml:space="preserve">
<style type="text/css">
	.st0{fill:#FFD880;}
	.st1{fill:#FFCCDC;stroke:#873566;stroke-width:2;stroke-miterlimit:10;}
	.st2{fill:#80D8FF;}
	.st3{fill:#B3B3FF;}
	.st4{fill:#FFF9EB;stroke:#806B35;stroke-width:2;stroke-miterlimit:10;}
	.st5{fill:#FFE8B6;stroke:#806B35;stroke-width:2;stroke-miterlimit:10;}
	.st6{fill:#B78937;stroke:#806B35;stroke-width:2;stroke-miterlimit:10;}
	.st7{fill:#BFA873;stroke:#806B35;stroke-width:2;stroke-miterlimit:10;}
	.st8{fill:#403C30;}
	.st9{opacity:0.5;fill:#696044;}
	.st10{fill:#FFE099;stroke:#806B35;stroke-width:2;stroke-miterlimit:10;}
	.st11{fill:none;stroke:#806B35;stroke-width:2;stroke-miterlimit:10;}
	.st12{fill:#CCB98F;stroke:#806B35;stroke-width:2;stroke-miterlimit:10;}
	.st13{fill:#8F7E56;stroke:#806B35;stroke-width:2;stroke-miterlimit:10;}
	.st14{fill:#FFDD88;stroke:#806B35;stroke-width:2;stroke-miterlimit:10;}
	.st15{opacity:0.5;fill:#46402E;}
	.st16{opacity:0.75;fill:#403C30;}
	.st17{opacity:0.5;fill:#403C30;}
	.st18{fill:#FFE8B3;stroke:#806B35;stroke-width:2;stroke-miterlimit:10;}
	.st19{opacity:0.75;fill:#6B5F41;}
	.st20{fill:#806B35;}
	.st21{fill:#433426;}
	.st22{fill:#A38541;}
	.st23{fill:#56492B;}
	.st24{fill:#BF607D;stroke:#873566;stroke-width:2;stroke-miterlimit:10;}
	.st25{fill:#FF80A7;stroke:#873566;stroke-width:2;stroke-miterlimit:10;}
	.st26{fill:#FF99B9;stroke:#873566;stroke-width:2;stroke-miterlimit:10;}
	.st27{fill:#FFB3CA;stroke:#873566;stroke-width:2;stroke-miterlimit:10;}
	.st28{fill:#FFD9E6;stroke:#873566;stroke-width:2;stroke-miterlimit:10;}
	.st29{opacity:0.5;fill:#873566;}
	.st30{fill:#60303F;stroke:#873566;stroke-width:2;stroke-miterlimit:10;}
	.st31{opacity:0.75;fill:#8F7E56;}
	.st32{fill:#80D8FF;stroke:#244959;stroke-width:2;stroke-miterlimit:10;}
	.st33{fill:#60A2BF;stroke:#244959;stroke-width:2;stroke-miterlimit:10;}
	.st34{fill:#99E0FF;stroke:#244959;stroke-width:2;stroke-miterlimit:10;}
	.st35{fill:#B3E8FF;stroke:#244959;stroke-width:2;stroke-miterlimit:10;}
	.st36{fill:#E6F7FF;stroke:#244959;stroke-width:2;stroke-miterlimit:10;}
	.st37{fill:#8686BF;stroke:#2D2D40;stroke-width:2;stroke-miterlimit:10;}
	.st38{fill:#5A5A80;stroke:#2D2D40;stroke-width:2;stroke-miterlimit:10;}
	.st39{fill:#B3B3FF;stroke:#2D2D40;stroke-width:2;stroke-miterlimit:10;}
	.st40{fill:#C2C2FF;stroke:#2D2D40;stroke-width:2;stroke-miterlimit:10;}
	.st41{fill:#E1E1FF;stroke:#2D2D40;stroke-width:2;stroke-miterlimit:10;}
	.st42{fill:#10272B;}
	.st43{opacity:0.5;fill:#295059;stroke:#244959;stroke-width:2;stroke-miterlimit:10;}
	.st44{opacity:0.5;fill:#10272B;}
	.st45{opacity:0.5;fill:#10272B;stroke:#10353C;stroke-miterlimit:10;}
	.st46{opacity:0.33;fill:#407284;stroke:#244959;stroke-width:2;stroke-miterlimit:10;}
	.st47{fill:#10272B;stroke:#244959;stroke-width:2;stroke-miterlimit:10;}
	.st48{opacity:0.5;fill:#331127;}
	.st49{opacity:0.5;fill:#C2C2FF;stroke:#2D2D40;stroke-width:2;stroke-miterlimit:10;}
	.st50{opacity:0.5;fill:#2D2D40;}
	.st51{opacity:0.75;fill:#5A5A80;stroke:#2D2D40;stroke-width:2;stroke-miterlimit:10;}
	.st52{fill:#2D2D40;}
	.st53{opacity:0.2;fill:#2D2D40;}
	.st54{fill:#295059;stroke:#244959;stroke-width:2;stroke-miterlimit:10;}
	.st55{fill:none;}
	.st56{fill:#873566;}
	.st57{fill:#994A64;stroke:#873566;stroke-width:2;stroke-miterlimit:10;}
	.st58{fill:#B24F72;stroke:#873566;stroke-width:2;stroke-miterlimit:10;}
</style>
<g id="Calque_1">
	<rect x="-1" class="st0" width="841.9" height="369"/>
</g>
<g id="Calque_2">
	<path class="st4" d="M493.7,44.2c-4.1,0-7.9,1-11.2,2.8c-3.9-11.8-15.1-20.3-28.2-20.3c-9.1,0-17.2,4.1-22.6,10.4
		c-1.5-0.3-3.1-0.5-4.7-0.5c-11.9,0-21.7,8.7-23.5,20c-1.6-0.5-3.3-0.7-5.1-0.7c-9.9,0-17.8,8-17.8,17.8s8,17.8,17.8,17.8
		c7.4,0,86.3,0,95.2,0c13.1,0,23.7-10.6,23.7-23.7C517.5,54.9,506.8,44.2,493.7,44.2z"/>
	<g>
		<g>
			<path class="st5" d="M340.3,90.9v18.4H363V90.9h8.4v43.7H363v-18.5h-22.7v18.5h-8.4V90.9H340.3z"/>
		</g>
		<g>
			<rect x="320.5" y="97.9" class="st6" width="11.4" height="4.9"/>
			<rect x="320.5" y="122.7" class="st6" width="11.4" height="4.9"/>
		</g>
	</g>
	<path class="st4" d="M804,73.3c-2.1,0-4.2,0.5-6,1.3c-0.4-11.5-9.9-20.6-21.4-20.6c-2.6,0-5.1,0.5-7.4,1.3
		c-4.4-5.3-11.1-8.6-18.5-8.6c-9.9,0-18.3,5.9-22.1,14.4c-2.1-0.7-4.3-1-6.6-1c-11.9,0-21.6,9.7-21.6,21.6
		c0,11.9,9.7,21.6,21.6,21.6c7.9,0,75.2,0,82,0c8.3,0,15-6.7,15-15C818.9,80,812.2,73.3,804,73.3z"/>
	<g>
		<g>
			<g>
				<rect x="530.7" y="102.2" class="st7" width="200.7" height="265.3"/>
			</g>
			<rect x="593.5" y="183.3" class="st8" width="74.7" height="125.5"/>
			<polygon class="st9" points="595.7,303.3 595.7,187.6 666,303.3 			"/>
			<path class="st10" d="M589.7,181.5v127.8H672V181.5H589.7z M627.7,303.3h-32v-35.1h32V303.3z M627.7,263h-32v-35.1h32V263z
				 M627.7,222.7h-32v-35.1h32V222.7z M666,303.3h-32v-35.1h32V303.3z M666,263h-32v-35.1h32V263z M666,222.7h-32v-35.1h32V222.7z"
				/>
			<g>
				<rect x="584.4" y="257.1" class="st11" width="92.8" height="51.7"/>
				<g>
					<line class="st11" x1="589.7" y1="257.1" x2="589.7" y2="308.8"/>
					<line class="st11" x1="595.6" y1="257.1" x2="595.6" y2="308.8"/>
					<line class="st11" x1="601.5" y1="257.1" x2="601.5" y2="308.8"/>
					<line class="st11" x1="607.3" y1="257.1" x2="607.3" y2="308.8"/>
					<line class="st11" x1="613.2" y1="257.1" x2="613.2" y2="308.8"/>
					<line class="st11" x1="619.1" y1="257.1" x2="619.1" y2="308.8"/>
					<line class="st11" x1="625" y1="257.1" x2="625" y2="308.8"/>
					<line class="st11" x1="630.8" y1="257.1" x2="630.8" y2="308.8"/>
					<line class="st11" x1="636.7" y1="257.1" x2="636.7" y2="308.8"/>
					<line class="st11" x1="642.6" y1="257.1" x2="642.6" y2="308.8"/>
					<line class="st11" x1="648.4" y1="257.1" x2="648.4" y2="308.8"/>
					<line class="st11" x1="654.3" y1="257.1" x2="654.3" y2="308.8"/>
					<line class="st11" x1="660.2" y1="257.1" x2="660.2" y2="308.8"/>
					<line class="st11" x1="666.1" y1="257.1" x2="666.1" y2="308.8"/>
					<line class="st11" x1="671.9" y1="257.1" x2="671.9" y2="308.8"/>
				</g>
			</g>
			<rect x="581.5" y="172.6" class="st12" width="98.6" height="9.3"/>
			<rect x="585.1" y="165.7" class="st13" width="91.4" height="6.8"/>
			<rect x="581.5" y="309.4" class="st12" width="98.6" height="9.3"/>
			<rect x="585.1" y="318.7" class="st13" width="91.4" height="6.8"/>
			<rect x="525" y="110.3" class="st12" width="212.2" height="9.3"/>
			<rect x="556.6" y="74.9" class="st13" width="40" height="17.9"/>
			<rect x="525" y="92.8" class="st12" width="212.2" height="9.3"/>
			<g>
				<g>
					<rect x="556.4" y="59.2" class="st13" width="17.3" height="6.8"/>
					<rect x="559.1" y="66" class="st10" width="11.9" height="8.9"/>
				</g>
				<g>
					<rect x="582.3" y="65.9" class="st10" width="11.9" height="8.9"/>
				</g>
			</g>
		</g>
		<rect x="706" y="216.8" class="st14" width="31.4" height="15.4"/>
		<rect x="684.7" y="232.1" class="st14" width="31.4" height="15.4"/>
		<rect x="703.3" y="335.9" class="st13" width="31.4" height="15.4"/>
		<rect x="526.2" y="140.2" class="st13" width="31.4" height="15.4"/>
		<rect x="529.7" y="156.6" class="st15" width="28.9" height="2.3"/>
		<rect x="588.8" y="182.7" class="st16" width="84.2" height="2"/>
		<rect x="584.7" y="319.2" class="st16" width="92.8" height="1.4"/>
		<rect x="584.3" y="326.5" class="st17" width="93.6" height="1.2"/>
		<rect x="702.2" y="352.3" class="st15" width="30.2" height="2.3"/>
		<rect x="683.7" y="248.5" class="st15" width="33.4" height="2.3"/>
		<rect x="717" y="233" class="st15" width="15.4" height="2.3"/>
	</g>
	<rect x="556.4" y="86.7" class="st17" width="40.3" height="5.2"/>
	<path class="st4" d="M58,67.5c-0.8,0-1.5,0.1-2.3,0.2c-1.7-7.1-8.2-12.4-15.8-12.4c-9,0-16.3,7.3-16.3,16.3c0,0.3,0,0.5,0,0.8
		C22.8,72.2,21.9,72,21,72c-6.3,0-11.3,5.1-11.3,11.3c0,6.3,5.1,11.3,11.3,11.3c5.4,0,31.6,0,37,0c7.5,0,13.6-6.1,13.6-13.6
		C71.6,73.6,65.5,67.5,58,67.5z"/>
	<g>
		<rect x="61.6" y="53.8" class="st18" width="262.8" height="313.6"/>
		<path class="st8" d="M114.1,173.1v-64.1c4.2-11.1,13.5-18.9,25.4-18.9s21.2,7.8,25.4,18.9l0.1,64.1H114.1z"/>
		<path class="st8" d="M221.5,172.7v-64.1c4.2-11.1,13.5-18.9,25.4-18.9c12,0,21.2,7.8,25.4,18.9l0.1,64.1H221.5z"/>
		<path class="st8" d="M222.3,329.4v-64.1c4.2-11.1,13.5-18.9,25.4-18.9c12,0,21.2,7.8,25.4,18.9l0.1,64.1H222.3z"/>
		<path class="st8" d="M113.7,329.4v-64.1c4.2-11.1,13.5-18.9,25.4-18.9s21.2,7.8,25.4,18.9l0.1,64.1H113.7z"/>
		<g>
			<rect x="206" y="344.2" class="st19" width="81.8" height="2.4"/>
			<rect x="98.2" y="344.2" class="st19" width="81.8" height="2.4"/>
			<rect x="221.8" y="353.1" class="st19" width="11.6" height="1.5"/>
			<rect x="260.4" y="353.1" class="st19" width="11.6" height="1.5"/>
			<rect x="206" y="187.9" class="st19" width="81.8" height="2.4"/>
			<rect x="98.2" y="187.9" class="st19" width="81.8" height="2.4"/>
			<g>
				<g>
					<g>
						<polygon class="st4" points="165,117.5 142.9,117.5 142.9,90.2 136.4,90.2 136.4,117.5 114.1,117.5 114.1,124 136.4,124 
							136.3,177 142.8,177 142.9,124 165,124 						"/>
						<path class="st4" d="M171.3,106.2c-5.1-13.3-17.4-22.7-31.8-22.7c-14.4,0-26.7,9.4-31.8,22.7V179h63.7L171.3,106.2z
							 M114.1,173.1v-64.1c4.2-11.1,13.5-18.9,25.4-18.9s21.2,7.8,25.4,18.9l0.1,64.1H114.1z"/>
					</g>
					<rect x="99.2" y="179" class="st10" width="79.8" height="7.9"/>
					<g>
						<rect x="115" y="186.9" class="st12" width="9.7" height="8.9"/>
						<rect x="153.6" y="186.9" class="st12" width="9.7" height="8.9"/>
					</g>
				</g>
				<g>
					<g>
						<polygon class="st4" points="272.8,117.5 250.7,117.5 250.7,90.2 244.2,90.2 244.2,117.5 221.8,117.5 221.8,124 244.2,124 
							244.1,177 250.6,177 250.7,124 272.8,124 						"/>
						<path class="st4" d="M279,106.2c-5.1-13.3-17.4-22.7-31.8-22.7c-14.4,0-26.7,9.4-31.8,22.7V179h63.7L279,106.2z M221.8,173.1
							v-64.1c4.2-11.1,13.5-18.9,25.4-18.9s21.2,7.8,25.4,18.9l0.1,64.1H221.8z"/>
					</g>
					<rect x="207" y="179" class="st10" width="79.8" height="7.9"/>
					<g>
						<rect x="222.8" y="186.9" class="st12" width="9.7" height="8.9"/>
						<rect x="261.4" y="186.9" class="st12" width="9.7" height="8.9"/>
					</g>
				</g>
			</g>
			<g>
				<g>
					<g>
						<polygon class="st4" points="165,273.8 142.9,273.8 142.9,246.4 136.4,246.4 136.4,273.8 114.1,273.8 114.1,280.3 
							136.4,280.3 136.3,333.3 142.8,333.3 142.9,280.3 165,280.3 						"/>
						<path class="st4" d="M171.3,262.5c-5.1-13.3-17.4-22.7-31.8-22.7c-14.4,0-26.7,9.4-31.8,22.7v72.8h63.7L171.3,262.5z
							 M114.1,329.4v-64.1c4.2-11.1,13.5-18.9,25.4-18.9s21.2,7.8,25.4,18.9l0.1,64.1H114.1z"/>
					</g>
					<rect x="99.2" y="335.3" class="st10" width="79.8" height="7.9"/>
					<g>
						<rect x="115" y="343.2" class="st12" width="9.7" height="8.9"/>
						<rect x="153.6" y="343.2" class="st12" width="9.7" height="8.9"/>
					</g>
				</g>
				<g>
					<g>
						<polygon class="st4" points="272.8,273.8 250.7,273.8 250.7,246.4 244.2,246.4 244.2,273.8 221.8,273.8 221.8,280.3 
							244.2,280.3 244.1,333.3 250.6,333.3 250.7,280.3 272.8,280.3 						"/>
						<path class="st4" d="M279,262.5c-5.1-13.3-17.4-22.7-31.8-22.7c-14.4,0-26.7,9.4-31.8,22.7v72.8h63.7L279,262.5z M221.8,329.4
							v-64.1c4.2-11.1,13.5-18.9,25.4-18.9s21.2,7.8,25.4,18.9l0.1,64.1H221.8z"/>
					</g>
					<rect x="207" y="335.3" class="st10" width="79.8" height="7.9"/>
					<g>
						<rect x="222.8" y="343.2" class="st12" width="9.7" height="8.9"/>
						<rect x="261.4" y="343.2" class="st12" width="9.7" height="8.9"/>
					</g>
				</g>
			</g>
			<rect x="114.1" y="353.1" class="st19" width="11.6" height="1.5"/>
			<rect x="152.7" y="353.1" class="st19" width="11.6" height="1.5"/>
			<rect x="114.1" y="196.9" class="st19" width="11.6" height="1.5"/>
			<rect x="152.7" y="196.9" class="st19" width="11.6" height="1.5"/>
			<rect x="221.8" y="196.9" class="st19" width="11.6" height="1.5"/>
			<rect x="260.4" y="196.9" class="st19" width="11.6" height="1.5"/>
		</g>
		<rect x="58.7" y="46.7" class="st18" width="268.6" height="7.2"/>
		<rect x="50.4" y="34.9" class="st18" width="285.3" height="11.8"/>
	</g>
	<rect x="53.7" y="216.8" class="st7" width="278.7" height="5.3"/>
	<path class="st20" d="M435.4,214.8c-4.2,0-8.3-0.2-12.5-0.5c-39.5-3.3-73-21-98.7-51.3l0.5-2.1c25.3,29.9,59.3,48.2,98.3,51.4
		c39,3.2,76.9-8.9,106.8-34.2l1.3,1.5C504,202.6,470.4,214.8,435.4,214.8z"/>
	<path class="st21" d="M456.7,190.3c0.1,0.1,0.2,0.1,0.3,0.1c0.2,0,0.4-0.1,0.6-0.1c0.9-0.1,1.4,0.3,1.6,1.2
		c0.2,0.8,0.2,1.6,0.2,2.4c0,2,0.1,3.9,0.4,5.8c0.2,1,0.5,1.9,1.1,2.7c0.5,0.7,1.2,1.1,2,1.5c0.9,0.4,1.9,0.8,2.8,1.3
		c0.8,0.4,1.5,1,1.9,1.8c0,0,0,0.1,0,0.1c0.1,0.3,0.4,1.8-1,2.5c-0.4,0.1-0.8,0.1-1.1,0.1c-0.2,0-0.5,0.1-0.7,0.2
		c-0.1,0-0.1,0.1-0.1,0.2c0.1,0,0.1,0.1,0.2,0.1c0.2,0,0.4,0.1,0.6,0.1c0.2,0,0.3,0.1,0.3,0.3c0,0.2-0.2,0.2-0.4,0.3
		c-0.3,0-0.6,0-1,0.1c-0.3,0-0.6,0.1-1,0.2c0,0,0,0.1,0,0.1c0.1,0,0.3,0.1,0.4,0.1c0.7,0,1.4,0.1,2.1,0c0.6,0,1.1-0.3,1.5-0.6
		c0.4-0.3,0.8-0.4,1.3-0.4c0.2,0,0.3-0.1,0.5-0.1c0,0,0-0.1,0-0.1c-0.1,0-0.2-0.1-0.3-0.1c-0.2,0-0.5,0-0.7,0
		c-0.1,0-0.2-0.1-0.3-0.1c0-0.1,0.1-0.2,0.2-0.3c0.1-0.1,0.2-0.1,0.4-0.1c0.2,0,0.5,0.1,0.7,0.1c0.1,0,0.2-0.1,0.2-0.1
		c0.1-0.1,0.2-0.1,0.4-0.2c-0.1-0.1-0.1-0.1-0.8-0.2c0.1-0.2-1.5-1.6,1.1-3c0.6-0.5,1.2-0.8,1.9-1c3.1-0.8,6.1-1.1,9.3-0.7
		c0.9,0.1,1.7,0.1,2.6,0.2c0.2,0,0.4,0,0.5-0.2c0.1-0.2-0.1-0.4-0.3-0.4c-0.7-0.2-1.3-0.5-2-0.7c-1.1-0.2-2.2-0.4-3.3-0.6
		c-0.1,0-0.2,0-0.3,0c0,0,0,0,0-0.1c0.1,0,0.2,0,0.3-0.1c1-0.2,1.9-0.4,2.9-0.7c0.3-0.1,0.6-0.3,0.9-0.4c0.3-0.2,0.3-0.6,0-0.8
		c-0.3-0.2-0.7-0.3-1.1-0.3c-1.3-0.1-2.6-0.2-3.9-0.3c-1.1-0.1-2.2-0.1-3.3-0.3c-1.4-0.2-2.6-0.9-3.8-1.6c-0.7-0.4-1.4-0.9-2.2-1.3
		c-1.6-0.7-2.5-2-3.4-3.3c-0.8-1.2-1.4-2.5-1.9-3.8c-0.5-1.6-1.9-2.7-3.5-2.7c-0.1,0-0.2,0-0.3,0c-0.2,0-0.4,0.1-0.6,0.1
		c-0.7,0.3-1,0.9-1.3,1.5c-0.1,0.3-0.3,0.5-0.5,0.7c-0.1,0.2-0.2,0.4-0.3,0.6C456.6,190.1,456.6,190.2,456.7,190.3z M459.3,188.6
		c0-0.1,0.1-0.3,0.2-0.3c0.1,0,0.3,0.1,0.3,0.2c0,0.1-0.1,0.3-0.2,0.3C459.5,188.9,459.4,188.8,459.3,188.6z"/>
	<path class="st22" d="M465,188.2c0.1,0.1,0.2,0.1,0.3,0c0.2,0,0.4-0.1,0.6-0.2c0.9-0.2,1.4,0.2,1.7,1.1c0.3,0.8,0.3,1.5,0.4,2.3
		c0.2,1.9,0.5,3.9,1,5.8c0.3,0.9,0.6,1.8,1.3,2.5c0.6,0.6,1.3,1,2.1,1.3c1,0.4,1.9,0.7,2.9,1c0.9,0.3,1.6,0.8,2.1,1.6
		c0,0,0,0.1,0.1,0.1c0.1,0.3,0.6,1.8-0.7,2.5c-0.4,0.1-0.8,0.1-1.1,0.2c-0.2,0.1-0.5,0.1-0.7,0.2c-0.1,0-0.1,0.1-0.1,0.2
		c0.1,0,0.1,0.1,0.2,0.1c0.2,0,0.4,0,0.6,0c0.2,0,0.3,0.1,0.4,0.3c0,0.2-0.2,0.3-0.3,0.3c-0.3,0.1-0.6,0.1-0.9,0.2
		c-0.3,0.1-0.6,0.2-0.9,0.3c0,0,0,0.1,0,0.1c0.1,0,0.3,0.1,0.4,0.1c0.7,0,1.4-0.1,2.1-0.2c0.6-0.1,1.1-0.4,1.5-0.7
		c0.4-0.3,0.8-0.4,1.3-0.5c0.2,0,0.3-0.1,0.5-0.1c0,0,0-0.1,0-0.1c-0.1,0-0.2-0.1-0.4-0.1c-0.2,0-0.5,0.1-0.7,0.1
		c-0.1,0-0.2,0-0.3-0.1c0-0.1,0.1-0.2,0.1-0.3c0.1-0.1,0.2-0.1,0.4-0.1c0.2,0,0.5,0,0.7,0c0.1,0,0.2-0.1,0.2-0.1
		c0.1-0.1,0.2-0.1,0.4-0.2c-0.1-0.1-0.1-0.1-0.9-0.1c0-0.2-1.7-1.5,0.8-3.1c0.5-0.6,1.1-0.9,1.8-1.2c3-1.1,6-1.7,9.2-1.6
		c0.9,0,1.7-0.1,2.6-0.1c0.2,0,0.4,0,0.5-0.3c0-0.2-0.2-0.4-0.4-0.4c-0.7-0.2-1.4-0.4-2.1-0.5c-1.1-0.1-2.2-0.2-3.4-0.3
		c-0.1,0-0.2,0-0.3,0c0,0,0,0,0-0.1c0.1,0,0.2-0.1,0.3-0.1c0.9-0.3,1.9-0.6,2.8-0.9c0.3-0.1,0.6-0.3,0.8-0.5
		c0.3-0.3,0.3-0.6-0.1-0.8c-0.3-0.1-0.7-0.2-1.1-0.2c-1.3,0-2.6,0.1-3.9,0.1c-1.1,0-2.2,0.1-3.3,0c-1.4-0.1-2.7-0.6-4-1.2
		c-0.8-0.3-1.5-0.8-2.3-1c-1.6-0.5-2.7-1.7-3.7-2.9c-0.9-1.1-1.7-2.3-2.2-3.6c-0.6-1.5-2.2-2.5-3.7-2.4c-0.1,0-0.2,0-0.3,0
		c-0.2,0.1-0.4,0.1-0.6,0.2c-0.6,0.4-1,1-1.2,1.6c-0.1,0.3-0.3,0.5-0.4,0.8c-0.1,0.2-0.2,0.4-0.2,0.6C465,188,465,188.1,465,188.2z
		 M467.5,186.3c0-0.1,0-0.3,0.2-0.3c0.1,0,0.3,0,0.3,0.2c0,0.1,0,0.3-0.2,0.3S467.6,186.4,467.5,186.3z"/>
	<path class="st23" d="M417.8,191.9c-0.1-0.2-0.2-0.4-0.3-0.6c-0.1-0.2-0.3-0.5-0.5-0.7c-0.3-0.7-0.7-1.2-1.3-1.6
		c-0.2,0-0.4-0.1-0.6-0.1c-0.1,0-0.2,0-0.3,0c-1.5,0-3,1.1-3.6,2.6c-0.5,1.4-1.1,2.6-1.9,3.8c-0.9,1.3-1.9,2.6-3.5,3.2
		c-0.8,0.3-1.5,0.8-2.2,1.2c-1.2,0.7-2.5,1.3-3.9,1.5c-1.1,0.1-2.2,0.2-3.3,0.2c-1.3,0.1-2.6,0.1-3.9,0.2c-0.4,0-0.7,0.1-1.1,0.3
		c-0.4,0.2-0.4,0.5-0.1,0.8c0.3,0.2,0.6,0.4,0.9,0.5c0.9,0.3,1.9,0.5,2.9,0.7c0.1,0,0.2,0,0.3,0.1c0,0,0,0,0,0.1c-0.1,0-0.2,0-0.3,0
		c-1.1,0.2-2.2,0.3-3.3,0.5c-0.7,0.1-1.4,0.4-2,0.6c-0.2,0.1-0.4,0.2-0.3,0.4c0.1,0.2,0.3,0.2,0.5,0.2c0.9,0,1.7,0,2.6-0.1
		c3.2-0.3,6.2,0.1,9.3,0.9c0.7,0.2,1.4,0.5,1.9,1c2.6,1.5,0.9,2.8,1,3c-0.8,0-0.8,0-0.8,0.2c0.1,0.1,0.2,0.1,0.4,0.2
		c0.1,0,0.2,0.1,0.2,0.1c0.2,0,0.5,0,0.7,0c0.1,0,0.3,0,0.4,0.1c0.1,0,0.1,0.2,0.1,0.3c-0.1,0-0.2,0.1-0.3,0.1c-0.2,0-0.5,0-0.7,0
		c-0.1,0-0.2,0.1-0.3,0.1c0,0,0,0.1,0,0.1c0.2,0,0.3,0.1,0.5,0.1c0.5,0,0.9,0.2,1.3,0.4c0.5,0.3,1,0.6,1.5,0.6c0.7,0,1.4,0,2.1,0
		c0.1,0,0.3-0.1,0.4-0.1c0,0,0-0.1,0-0.1c-0.3-0.1-0.6-0.2-1-0.2c-0.3-0.1-0.6,0-0.9-0.1c-0.2,0-0.4,0-0.4-0.3
		c0-0.2,0.2-0.3,0.3-0.3c0.2,0,0.4,0,0.6-0.1c0.1,0,0.1-0.1,0.2-0.1c0-0.1-0.1-0.1-0.1-0.2c-0.2-0.1-0.5-0.2-0.7-0.2
		c-0.4-0.1-0.8-0.1-1.1-0.1c-1.4-0.7-1-2.2-0.9-2.5c0,0,0-0.1,0-0.1c0.4-0.8,1.1-1.4,1.9-1.8c0.9-0.4,1.9-0.8,2.8-1.2
		c0.8-0.4,1.5-0.8,2-1.5c0.7-0.8,1-1.7,1.2-2.6c0.4-1.9,0.5-3.9,0.6-5.8c0-0.8,0-1.6,0.2-2.4c0.3-0.9,0.8-1.3,1.7-1.2
		c0.2,0,0.4,0.1,0.6,0.1c0.1,0,0.2,0,0.3-0.1C417.8,192.1,417.8,192,417.8,191.9z M414.9,190.6c-0.1,0-0.2-0.2-0.2-0.3
		c0-0.1,0.2-0.2,0.3-0.2c0.1,0,0.2,0.2,0.2,0.3C415.1,190.6,415,190.7,414.9,190.6z"/>
	<rect x="59.7" y="47.7" class="st31" width="266.7" height="2.7"/>
	<rect x="62.7" y="54.2" class="st31" width="260.9" height="3.6"/>
	<rect x="62.7" y="222.5" class="st31" width="260.9" height="3"/>
	<rect x="529.8" y="120.6" class="st17" width="202.6" height="3"/>
	<rect x="529.8" y="103.1" class="st17" width="202.6" height="3.4"/>
</g>
<g id="Calque_3">
</g>
</svg>
