<?xml version="1.0" encoding="utf-8"?>
<!-- Generator: Adobe Illustrator 19.1.0, SVG Export Plug-In . SVG Version: 6.00 Build 0)  -->
<svg version="1.1" xmlns="http://www.w3.org/2000/svg" xmlns:xlink="http://www.w3.org/1999/xlink" x="0px" y="0px"
	 viewBox="0 0 841.9 369" style="enable-background:new 0 0 841.9 369;" xml:space="preserve">
<style type="text/css">
	.st0{fill:#FFD880;}
	.st1{fill:#FFCCDC;stroke:#873566;stroke-width:2;stroke-miterlimit:10;}
	.st2{fill:#80D8FF;}
	.st3{fill:#B3B3FF;}
	.st4{fill:#FFF9EB;stroke:#806B35;stroke-width:2;stroke-miterlimit:10;}
	.st5{fill:#FFE8B6;stroke:#806B35;stroke-width:2;stroke-miterlimit:10;}
	.st6{fill:#B78937;stroke:#806B35;stroke-width:2;stroke-miterlimit:10;}
	.st7{fill:#BFA873;stroke:#806B35;stroke-width:2;stroke-miterlimit:10;}
	.st8{fill:#403C30;}
	.st9{opacity:0.5;fill:#696044;}
	.st10{fill:#FFE099;stroke:#806B35;stroke-width:2;stroke-miterlimit:10;}
	.st11{fill:none;stroke:#806B35;stroke-width:2;stroke-miterlimit:10;}
	.st12{fill:#CCB98F;stroke:#806B35;stroke-width:2;stroke-miterlimit:10;}
	.st13{fill:#8F7E56;stroke:#806B35;stroke-width:2;stroke-miterlimit:10;}
	.st14{fill:#FFDD88;stroke:#806B35;stroke-width:2;stroke-miterlimit:10;}
	.st15{opacity:0.5;fill:#46402E;}
	.st16{opacity:0.75;fill:#403C30;}
	.st17{opacity:0.5;fill:#403C30;}
	.st18{fill:#FFE8B3;stroke:#806B35;stroke-width:2;stroke-miterlimit:10;}
	.st19{opacity:0.75;fill:#6B5F41;}
	.st20{fill:#806B35;}
	.st21{fill:#433426;}
	.st22{fill:#A38541;}
	.st23{fill:#56492B;}
	.st24{fill:#BF607D;stroke:#873566;stroke-width:2;stroke-miterlimit:10;}
	.st25{fill:#FF80A7;stroke:#873566;stroke-width:2;stroke-miterlimit:10;}
	.st26{fill:#FF99B9;stroke:#873566;stroke-width:2;stroke-miterlimit:10;}
	.st27{fill:#FFB3CA;stroke:#873566;stroke-width:2;stroke-miterlimit:10;}
	.st28{fill:#FFD9E6;stroke:#873566;stroke-width:2;stroke-miterlimit:10;}
	.st29{opacity:0.5;fill:#873566;}
	.st30{fill:#60303F;stroke:#873566;stroke-width:2;stroke-miterlimit:10;}
	.st31{opacity:0.75;fill:#8F7E56;}
	.st32{fill:#80D8FF;stroke:#244959;stroke-width:2;stroke-miterlimit:10;}
	.st33{fill:#60A2BF;stroke:#244959;stroke-width:2;stroke-miterlimit:10;}
	.st34{fill:#99E0FF;stroke:#244959;stroke-width:2;stroke-miterlimit:10;}
	.st35{fill:#B3E8FF;stroke:#244959;stroke-width:2;stroke-miterlimit:10;}
	.st36{fill:#E6F7FF;stroke:#244959;stroke-width:2;stroke-miterlimit:10;}
	.st37{fill:#8686BF;stroke:#2D2D40;stroke-width:2;stroke-miterlimit:10;}
	.st38{fill:#5A5A80;stroke:#2D2D40;stroke-width:2;stroke-miterlimit:10;}
	.st39{fill:#B3B3FF;stroke:#2D2D40;stroke-width:2;stroke-miterlimit:10;}
	.st40{fill:#C2C2FF;stroke:#2D2D40;stroke-width:2;stroke-miterlimit:10;}
	.st41{fill:#E1E1FF;stroke:#2D2D40;stroke-width:2;stroke-miterlimit:10;}
	.st42{fill:#10272B;}
	.st43{opacity:0.5;fill:#295059;stroke:#244959;stroke-width:2;stroke-miterlimit:10;}
	.st44{opacity:0.5;fill:#10272B;}
	.st45{opacity:0.5;fill:#10272B;stroke:#10353C;stroke-miterlimit:10;}
	.st46{opacity:0.33;fill:#407284;stroke:#244959;stroke-width:2;stroke-miterlimit:10;}
	.st47{fill:#10272B;stroke:#244959;stroke-width:2;stroke-miterlimit:10;}
	.st48{opacity:0.5;fill:#331127;}
	.st49{opacity:0.5;fill:#C2C2FF;stroke:#2D2D40;stroke-width:2;stroke-miterlimit:10;}
	.st50{opacity:0.5;fill:#2D2D40;}
	.st51{opacity:0.75;fill:#5A5A80;stroke:#2D2D40;stroke-width:2;stroke-miterlimit:10;}
	.st52{fill:#2D2D40;}
	.st53{opacity:0.2;fill:#2D2D40;}
	.st54{fill:#295059;stroke:#244959;stroke-width:2;stroke-miterlimit:10;}
	.st55{fill:none;}
	.st56{fill:#873566;}
	.st57{fill:#994A64;stroke:#873566;stroke-width:2;stroke-miterlimit:10;}
	.st58{fill:#B24F72;stroke:#873566;stroke-width:2;stroke-miterlimit:10;}
</style>
<g id="Calque_1">
	<rect class="st1" width="841.9" height="369"/>
</g>
<g id="Calque_2">
	<rect x="78" y="58.4" class="st28" width="568" height="310.6"/>
	<rect x="76.1" y="319.2" class="st29" width="571.7" height="4.5"/>
	<rect x="77.5" y="63.8" class="st24" width="3.9" height="303.8"/>
	<rect x="643.9" y="65.2" class="st24" width="3.9" height="303.8"/>
	<g>
		<path class="st30" d="M440.2,151.3h-12.9c-16.1,0-29.1,14.5-29.1,32.3v2.8v131.4v-1.1h71.2v-67.4v-62.9v-2.8
			C469.3,165.7,456.3,151.3,440.2,151.3z"/>
		<path class="st30" d="M342.4,151.3h-12.9c-16.1,0-29.1,14.5-29.1,32.3v2.8v131.4v-1.1h71.2v-67.4v-62.9v-2.8
			C371.6,165.7,358.5,151.3,342.4,151.3z"/>
		<path class="st30" d="M244.7,151.3h-12.9c-16.1,0-29.1,14.5-29.1,32.3v2.8v131.4v-1.1h71.2v-67.4v-62.9v-2.8
			C273.9,165.7,260.8,151.3,244.7,151.3z"/>
		<path class="st30" d="M147,151.3h-12.9c-16.1,0-29.1,14.5-29.1,32.3v2.8v131.4v-1.1h71.2v-67.4v-62.9v-2.8
			C176.1,165.7,163.1,151.3,147,151.3z"/>
		<rect x="172.5" y="196.6" class="st24" width="33.8" height="10.3"/>
		<rect x="270.2" y="196.6" class="st24" width="33.8" height="10.3"/>
		<rect x="368" y="196.6" class="st24" width="33.8" height="10.3"/>
	</g>
	<path class="st29" d="M498.2,141.1c0-5.7-4.6-10.3-10.3-10.3H86.4c-5.7,0-10.3,4.6-10.3,10.3c0,0,0,13.7,0,15.5c0,9.9,8.1,18,18,18
		c7.1,0,13.1-4.1,16.1-10c2.9,5.9,9,10,16.1,10c7.1,0,13.1-4.1,16.1-10c2.9,5.9,9,10,16.1,10c7.1,0,13.1-4.1,16.1-10
		c2.9,5.9,9,10,16.1,10c7.1,0,13.1-4.1,16.1-10c2.9,5.9,9,10,16.1,10s13.1-4.1,16.1-10c2.9,5.9,9,10,16.1,10c7.1,0,13.1-4.1,16.1-10
		c2.9,5.9,9,10,16.1,10c7.1,0,13.1-4.1,16.1-10c2.9,5.9,9,10,16.1,10c7.1,0,13.1-4.1,16.1-10c2.9,5.9,9,10,16.1,10
		c7.1,0,13.1-4.1,16.1-10c2.9,5.9,9,10,16.1,10c7.1,0,13.1-4.1,16.1-10c2.9,5.9,9,10,16.1,10c7.1,0,13.1-4.1,16.1-10
		c2.9,5.9,9,10,16.1,10c7.1,0,13.1-4.1,16.1-10c2.9,5.9,9,10,16.1,10c9.9,0,18-8.1,18-18C498.2,154.9,498.2,141.1,498.2,141.1z"/>
	<path class="st25" d="M498.2,136.8c0-5.7-4.6-10.3-10.3-10.3H86.4c-5.7,0-10.3,4.6-10.3,10.3c0,0,0,13.7,0,15.5c0,9.9,8.1,18,18,18
		c7.1,0,13.1-4.1,16.1-10c2.9,5.9,9,10,16.1,10s13.1-4.1,16.1-10c2.9,5.9,9,10,16.1,10c7.1,0,13.1-4.1,16.1-10c2.9,5.9,9,10,16.1,10
		c7.1,0,13.1-4.1,16.1-10c2.9,5.9,9,10,16.1,10s13.1-4.1,16.1-10c2.9,5.9,9,10,16.1,10c7.1,0,13.1-4.1,16.1-10c2.9,5.9,9,10,16.1,10
		c7.1,0,13.1-4.1,16.1-10c2.9,5.9,9,10,16.1,10s13.1-4.1,16.1-10c2.9,5.9,9,10,16.1,10c7.1,0,13.1-4.1,16.1-10c2.9,5.9,9,10,16.1,10
		c7.1,0,13.1-4.1,16.1-10c2.9,5.9,9,10,16.1,10c7.1,0,13.1-4.1,16.1-10c2.9,5.9,9,10,16.1,10c7.1,0,13.1-4.1,16.1-10
		c2.9,5.9,9,10,16.1,10c9.9,0,18-8.1,18-18C498.2,150.6,498.2,136.8,498.2,136.8z"/>
	<rect x="73.6" y="311.3" class="st26" width="576.9" height="7.7"/>
	<rect x="72.6" y="123.9" class="st24" width="576.9" height="7.7"/>
	<rect x="72.6" y="77" class="st27" width="577.9" height="7.7"/>
	<g>
		<rect x="529.6" y="151.7" class="st26" width="98.2" height="140.9"/>
		<rect x="535.6" y="158" class="st30" width="86" height="128.4"/>
	</g>
	<rect x="73.6" y="48.9" class="st25" width="576.9" height="19.3"/>
	<rect x="177.1" y="207.9" class="st29" width="24.7" height="2.4"/>
	<rect x="274.8" y="207.9" class="st29" width="24.7" height="2.4"/>
	<rect x="372.5" y="207.9" class="st29" width="24.7" height="2.4"/>
	<rect x="76.3" y="85.6" class="st29" width="571.4" height="1.7"/>
	<rect x="76.3" y="69.1" class="st29" width="571.4" height="1.7"/>
	<rect x="528.5" y="293.7" class="st29" width="100.3" height="2.4"/>
	<rect x="536.6" y="159" class="st48" width="84" height="1.8"/>
	<rect x="497.7" y="132.6" class="st29" width="151.2" height="2.4"/>
	<g>
		<polygon class="st55" points="448,329.8 485.8,367.6 498.1,367.6 535.9,329.8 		"/>
		<polygon class="st55" points="182.8,329.8 220.6,367.6 232.9,367.6 270.7,329.8 		"/>
		<path class="st24" d="M243.6,320c-0.3-1.9-0.3-39.9-0.3-45.1c0-2.4-0.6-4.6-1.8-6.6c-0.8-1.4-1.7-2.7-2.6-4
			c-0.7-1.1-1.2-2.2-1.3-3.6c-0.1-1.8-0.7-10.4-0.2-12.9c0.1-0.4,1.2-2.2,0-4.2c-2.1,0-6,0-8.2,0c-1.6,1.5,0,4.1,0,4.8
			c0,0.5,0,7.9,0,11.2c0,2.1-0.7,4-2,5.7c-0.8,1.1-1.5,2.3-2.2,3.5c-1,1.8-1.5,3.6-1.5,5.7c0.1,4,0.6,43.7,0.4,45.7
			c-0.2,1.9,0,2.8,1.3,3.6H242C243.6,323,243.9,322.1,243.6,320z M240.3,308.7h-13.4v-22.4h13.4V308.7z"/>
		<rect x="226.9" y="286.3" class="st1" width="13.4" height="22.4"/>
		<rect x="201.7" y="291.5" class="st27" width="17.1" height="5.5"/>
		<path class="st56" d="M211.3,308.1v0.6h0.1c4.3,0,7.8-3.5,7.8-7.8v-3.9h-0.5v2.8h-17.1v-2.8h-0.5v3.9c0,4.3,3.5,7.8,7.8,7.8h0
			v-0.6H211.3z"/>
		<rect x="201.7" y="296.9" class="st56" width="17.1" height="2.8"/>
		<path class="st27" d="M216.7,322.4h-5.3v-13.8H209v13.8h-5.3c-0.6,0-1.1,0.9-1.4,1.4H218C217.8,323.3,217.3,322.4,216.7,322.4z"/>
		<rect x="209" y="308.1" class="st27" width="2.3" height="0.6"/>
		<rect x="263.5" y="291.5" class="st27" width="17.1" height="5.5"/>
		<path class="st56" d="M273.2,308.1v0.6h0.1c4.3,0,7.8-3.5,7.8-7.8v-3.9h-0.5v2.8h-17.1v-2.8H263v3.9c0,4.3,3.5,7.8,7.8,7.8h0v-0.6
			H273.2z"/>
		<rect x="263.5" y="296.9" class="st56" width="17.1" height="2.8"/>
		<path class="st27" d="M278.5,322.4h-5.3v-13.8h-2.3v13.8h-5.3c-0.6,0-1.1,0.9-1.4,1.4h15.6C279.6,323.3,279.1,322.4,278.5,322.4z"
			/>
		<rect x="270.9" y="308.1" class="st27" width="2.3" height="0.6"/>
		<path class="st24" d="M182.8,329.8h87.9l-37.8,37.8h8.4l37.8-37.8h22.4v-5.9h-21.5c0.1,0.2,0.2,0.4,0.2,0.4h-16
			c0,0,0.1-0.1,0.2-0.4H242c-0.1,0.1-0.3,0.2-0.5,0.2c-5.2,0-10.5,0.1-15.7,0.1c-0.2-0.1-0.5-0.2-0.7-0.4H218
			c0.1,0.2,0.2,0.4,0.2,0.4h-16c0,0,0.1-0.1,0.2-0.4h-47v5.9h19l37.8,37.8h8.4L182.8,329.8z"/>
		<path class="st24" d="M241.6,324.1c0.2-0.1,0.3-0.2,0.5-0.2h-16.8c0.2,0.1,0.4,0.2,0.7,0.4C231.1,324.2,236.4,324.1,241.6,324.1z"
			/>
		<path class="st24" d="M218.2,324.2c0,0-0.1-0.1-0.2-0.4h-15.6c-0.1,0.2-0.2,0.4-0.2,0.4H218.2z"/>
		<path class="st24" d="M280.1,324.2c0,0-0.1-0.1-0.2-0.4h-15.6c-0.1,0.2-0.2,0.4-0.2,0.4H280.1z"/>
		<polygon class="st57" points="448,329.8 535.9,329.8 498.1,367.6 506.4,367.6 544.2,329.8 566.6,329.8 566.6,323.9 523.9,323.9 
			523.9,323.9 502.9,323.9 502.9,323.9 456.3,323.9 456.3,323.9 454.8,323.9 454.8,323.9 420.6,323.9 420.6,329.8 439.6,329.8 
			477.4,367.6 485.8,367.6 		"/>
		<path class="st25" d="M463.2,317v-3.8v-12.5H448v12.5v3.8c0,3.8,3.1,6.8,6.8,6.8h1.5C460.1,323.9,463.2,320.8,463.2,317z"/>
		<rect x="455.6" y="323.1" class="st25" width="0" height="1.5"/>
		<polygon class="st27" points="463.2,295.4 463.2,291.4 448,291.4 448,295.4 448,300.7 463.2,300.7 		"/>
		<path class="st58" d="M539.3,315.7l0.2-1.4v-2.5h-52.2v2.5l0.2,1.4c1.1,4.6,7.6,8.2,15.4,8.2h21
			C531.8,323.9,538.2,320.3,539.3,315.7z"/>
		<rect x="487.3" y="304" class="st58" width="52.2" height="3.9"/>
		<rect x="513.4" y="313.3" class="st58" width="0" height="21"/>
		<rect x="539.5" y="307.9" class="st1" width="0.8" height="3.9"/>
		<rect x="486.5" y="307.9" class="st1" width="0.8" height="3.9"/>
		<rect x="487.3" y="307.9" class="st1" width="52.2" height="3.9"/>
		<polygon class="st7" points="491.9,373.7 498.1,367.6 485.8,367.6 		"/>
	</g>
</g>
<g id="Calque_3">
</g>
</svg>
