<?xml version="1.0" encoding="utf-8"?>
<!-- Generator: Adobe Illustrator 19.1.0, SVG Export Plug-In . SVG Version: 6.00 Build 0)  -->
<svg version="1.1" xmlns="http://www.w3.org/2000/svg" xmlns:xlink="http://www.w3.org/1999/xlink" x="0px" y="0px"
	 viewBox="0 0 841.9 369" style="enable-background:new 0 0 841.9 369;" xml:space="preserve">
<style type="text/css">
	.st0{fill:#FFD880;}
	.st1{fill:#FFCCDC;stroke:#873566;stroke-width:2;stroke-miterlimit:10;}
	.st2{fill:#80D8FF;}
	.st3{fill:#B3B3FF;}
	.st4{fill:#FFF9EB;stroke:#806B35;stroke-width:2;stroke-miterlimit:10;}
	.st5{fill:#FFE8B6;stroke:#806B35;stroke-width:2;stroke-miterlimit:10;}
	.st6{fill:#B78937;stroke:#806B35;stroke-width:2;stroke-miterlimit:10;}
	.st7{fill:#BFA873;stroke:#806B35;stroke-width:2;stroke-miterlimit:10;}
	.st8{fill:#403C30;}
	.st9{opacity:0.5;fill:#696044;}
	.st10{fill:#FFE099;stroke:#806B35;stroke-width:2;stroke-miterlimit:10;}
	.st11{fill:none;stroke:#806B35;stroke-width:2;stroke-miterlimit:10;}
	.st12{fill:#CCB98F;stroke:#806B35;stroke-width:2;stroke-miterlimit:10;}
	.st13{fill:#8F7E56;stroke:#806B35;stroke-width:2;stroke-miterlimit:10;}
	.st14{fill:#FFDD88;stroke:#806B35;stroke-width:2;stroke-miterlimit:10;}
	.st15{opacity:0.5;fill:#46402E;}
	.st16{opacity:0.75;fill:#403C30;}
	.st17{opacity:0.5;fill:#403C30;}
	.st18{fill:#FFE8B3;stroke:#806B35;stroke-width:2;stroke-miterlimit:10;}
	.st19{opacity:0.75;fill:#6B5F41;}
	.st20{fill:#806B35;}
	.st21{fill:#433426;}
	.st22{fill:#A38541;}
	.st23{fill:#56492B;}
	.st24{fill:#BF607D;stroke:#873566;stroke-width:2;stroke-miterlimit:10;}
	.st25{fill:#FF80A7;stroke:#873566;stroke-width:2;stroke-miterlimit:10;}
	.st26{fill:#FF99B9;stroke:#873566;stroke-width:2;stroke-miterlimit:10;}
	.st27{fill:#FFB3CA;stroke:#873566;stroke-width:2;stroke-miterlimit:10;}
	.st28{fill:#FFD9E6;stroke:#873566;stroke-width:2;stroke-miterlimit:10;}
	.st29{opacity:0.5;fill:#873566;}
	.st30{fill:#60303F;stroke:#873566;stroke-width:2;stroke-miterlimit:10;}
	.st31{opacity:0.75;fill:#8F7E56;}
	.st32{fill:#80D8FF;stroke:#244959;stroke-width:2;stroke-miterlimit:10;}
	.st33{fill:#60A2BF;stroke:#244959;stroke-width:2;stroke-miterlimit:10;}
	.st34{fill:#99E0FF;stroke:#244959;stroke-width:2;stroke-miterlimit:10;}
	.st35{fill:#B3E8FF;stroke:#244959;stroke-width:2;stroke-miterlimit:10;}
	.st36{fill:#E6F7FF;stroke:#244959;stroke-width:2;stroke-miterlimit:10;}
	.st37{fill:#8686BF;stroke:#2D2D40;stroke-width:2;stroke-miterlimit:10;}
	.st38{fill:#5A5A80;stroke:#2D2D40;stroke-width:2;stroke-miterlimit:10;}
	.st39{fill:#B3B3FF;stroke:#2D2D40;stroke-width:2;stroke-miterlimit:10;}
	.st40{fill:#C2C2FF;stroke:#2D2D40;stroke-width:2;stroke-miterlimit:10;}
	.st41{fill:#E1E1FF;stroke:#2D2D40;stroke-width:2;stroke-miterlimit:10;}
	.st42{fill:#10272B;}
	.st43{opacity:0.5;fill:#295059;stroke:#244959;stroke-width:2;stroke-miterlimit:10;}
	.st44{opacity:0.5;fill:#10272B;}
	.st45{opacity:0.5;fill:#10272B;stroke:#10353C;stroke-miterlimit:10;}
	.st46{opacity:0.33;fill:#407284;stroke:#244959;stroke-width:2;stroke-miterlimit:10;}
	.st47{fill:#10272B;stroke:#244959;stroke-width:2;stroke-miterlimit:10;}
	.st48{opacity:0.5;fill:#331127;}
	.st49{opacity:0.5;fill:#C2C2FF;stroke:#2D2D40;stroke-width:2;stroke-miterlimit:10;}
	.st50{opacity:0.5;fill:#2D2D40;}
	.st51{opacity:0.75;fill:#5A5A80;stroke:#2D2D40;stroke-width:2;stroke-miterlimit:10;}
	.st52{fill:#2D2D40;}
	.st53{opacity:0.2;fill:#2D2D40;}
	.st54{fill:#295059;stroke:#244959;stroke-width:2;stroke-miterlimit:10;}
	.st55{fill:none;}
	.st56{fill:#873566;}
	.st57{fill:#994A64;stroke:#873566;stroke-width:2;stroke-miterlimit:10;}
	.st58{fill:#B24F72;stroke:#873566;stroke-width:2;stroke-miterlimit:10;}
</style>
<g id="Calque_1">
	<rect y="-1.1" class="st3" width="841.9" height="370.1"/>
</g>
<g id="Calque_2">
	<g>
		<g>
			<g>
				<rect x="39" y="329.2" class="st38" width="283.4" height="32.9"/>
				<rect x="34.8" y="329.2" class="st37" width="291.8" height="6.2"/>
				<rect x="37.6" y="329.2" class="st37" width="286.3" height="38.8"/>
				<g>
					<path class="st38" d="M108,242.2c-3.7-0.5-7.4-0.7-10.9-1.4c-5.5-1.1-6.8-2.8-7.2-8.3c-0.5-7.7,0.2-15.3,3.7-22.3
						c3-6,3.2-11.8,0.7-18c-3.1-7.5-5.9-15.1-8.7-22.7c-1.4-3.8-0.8-5.3,2.9-7c3.1-1.4,6.4-2.4,9.6-3.3c2.9-0.8,5-2.5,4.7-5.3
						c-0.5-3.8,3.4-5.1,3.9-8.2c0.3-1.7,0.6-3.4,1-5.1c0.2-1.1,0.4-2.2,0.9-3.1c0.2-0.4,1.9-0.3,2.2,0c0.5,0.9,1,2.1,0.8,3.1
						c-0.8,3.6,1,6,3.2,8.4c0.8,0.9,1.3,2.5,1.4,3.7c0.3,3.6,2,5.7,5.6,6.6c3.3,0.8,6.5,2.1,9.6,3.4c2.8,1.2,3.6,3.3,2.5,6.3
						c-2.8,7.1-5.3,14.3-8.3,21.3c-3,7-3,13.7,0.5,20.6c3.6,7.2,3.8,15.2,3.2,23.1c-0.3,3.6-2.4,5.6-5.7,6.3
						c-4,0.8-8.1,1.3-12.3,1.9c0,0.9-0.1,2-0.1,3c0,17.1,0,34.3-0.1,51.4c0,2.8,1,4.4,3.5,5.3c4.2,1.6,6.5,4.8,7.1,9.3
						c0.2,1.1,1,2.1,1.7,3c0.7,0.9,1.5,1.7,2.3,2.5c-0.8,0.6-1.7,1.9-2.3,1.8c-1.2-0.2-2.8-1-3.2-2c-0.8-2.2-0.6-4.7-1.3-6.9
						c-0.6-1.6-1.7-3.4-3-4.4c-2.6-1.8-4.5-0.6-4.6,2.6c-0.1,2.2,0.2,4.5,0.1,6.7c-0.1,0.8-1,1.5-1.6,2.2c-0.5-0.8-1.4-1.5-1.5-2.3
						c-0.2-2.1,0.1-4.2-0.1-6.3c-0.1-1.1-0.7-2.7-1.5-3.2c-0.9-0.4-2.7-0.1-3.4,0.6c-1.2,1.2-2.2,2.9-2.7,4.6
						c-0.6,1.9-0.4,4-0.9,5.9c-0.5,2.1-2,3.2-4.2,2.2c-0.6-0.3-1.3-1.2-1.3-1.8c0-0.6,0.7-1.9,1.1-1.9c2.8-0.1,2.7-2.2,2.9-4
						c0.6-4.2,3-7,6.9-8.7c2.1-0.9,3.5-2,3.5-4.6c-0.1-17.7,0-35.5-0.1-53.2C108.2,243.6,108.1,242.9,108,242.2z"/>
					<path class="st38" d="M178.9,143.6c0.3-1.3,0.3-2.9,1.1-3.9c0.4-0.6,2.6-0.6,3-0.1c0.8,1,0.9,2.5,1.1,2.9
						c1.4,2.5,2.9,4.1,3.3,6c1,4.5,3,7.8,7.7,9.1c1.5,0.4,2.8,1.1,4.2,1.7c5.4,2.3,6.2,3.5,4.2,9.1c-1.6,4.4-3.8,8.6-5.8,12.8
						c-1,2.1-2.2,4.2-3.2,6.3c-2.9,5.8-2.7,11.3,1.7,16.3c6.3,7.2,8.7,15.6,8.3,25.1c-0.3,7.4-1.5,8.8-8.8,9.2
						c-4.1,0.2-8.2,0.4-12.6,0.6c-0.1,0.9-0.2,1.8-0.2,2.7c0,11.3-0.2,22.6,0,33.8c0.1,7.6,0.6,15.2,1.1,22.8
						c0.2,2.4,0.9,4.8,1.5,7.1c0.2,0.7,0.9,1.2,1.5,1.7c1.1,1.1,2.5,1.9,3.2,3.2c1.8,3.4,4.4,5.3,8.2,5.9c0.9,0.2,1.6,1.4,2.4,2.2
						c-1.2,0.1-2.5,0.6-3.5,0.2c-3.5-1.6-6.9-3.2-9-6.9c-0.8-1.4-3.1-1.9-5.5-3.3c0.1,2.4,0.3,3.5,0.2,4.6c-0.1,1.4-0.4,2.8-0.7,4.2
						c0,0.1-1.5,0.1-1.5-0.1c-0.3-1.4-0.5-2.9-0.6-4.3c-0.1-1,0.1-2,0.2-3.1c-2.9-0.8-4.9,0.3-6.1,2.6c-1.9,3.9-5.9,4.8-9.2,6.6
						c-0.6,0.3-1.8-0.4-2.8-0.6c0.6-0.7,1.1-1.8,1.9-1.9c4.1-0.7,7.2-2.6,9-6.5c0.1-0.3,0.4-0.6,0.7-0.8c5.5-3.6,5.7-9.6,5.9-15
						c0.5-17.5,0.5-35,0.6-52.5c0-0.8-0.2-1.6-0.3-2.6c-5-0.3-9.9-0.5-14.8-0.8c-4.3-0.3-6-1.7-6.4-6c-0.9-9.9,0.4-19.3,7.3-27.1
						c5.4-6.1,5.5-12.2,1.8-19.1c-2.9-5.4-5.7-10.8-7.9-16.5c-2.6-6.5-1.8-7.8,4.6-10.3c1.3-0.5,2.6-1.1,3.9-1.5
						c4.3-1.3,6.3-4.4,7.2-8.7c0.4-1.9,1.7-3.6,2.6-5.4C178.7,143.4,178.8,143.5,178.9,143.6z"/>
					<path class="st38" d="M273.9,317.5c-8,3-11.9-2.5-15.9-7.7c-0.3,0.2-0.6,0.5-0.9,0.7c0,1.9,0.1,3.9-0.1,5.8
						c0,0.6-0.8,1.2-1.2,1.8c-0.5-0.6-1.5-1.1-1.6-1.7c-0.2-2-0.1-3.9-0.1-5.9c-0.3-0.2-0.6-0.3-0.9-0.5c-1,1.1-2.3,2.1-3,3.3
						c-3,4.9-7.5,5.8-13.1,4.6c0.9-0.6,1.8-1.6,2.8-1.7c4.3-0.6,7.2-2.7,8.3-7c0.2-0.7,0.7-1.6,1.3-2c4.6-3.2,4.3-7.3,3.6-12.4
						c-0.8-6.4,0.4-13,0.4-19.6c0.1-13.6,0-27.1,0-40.6c-3.4,0-7,0-10.6,0c-2,0-3-0.7-3.6-2.8c-2.2-7.4-2.3-14.9-0.6-22.3
						c1.8-7.8,0.2-14.9-2.8-21.9c-1.2-2.9-2.6-5.8-3.8-8.7c-1.8-4.2-1.4-8.2,1.4-11.9c2.3-2.9,3.8-6.1,3.6-10
						c-0.1-3.5,2.9-4.6,5.5-4.9c4.1-0.5,6.2-2.1,5.8-6.3c0-0.4,0-1.1,0.3-1.3c1.9-1.4,3.2-3.1,3.6-5.6c0.1-0.4,1.9-1,2.7-0.8
						c0.8,0.2,1.3,1.4,1.8,2.2c0.7,1.1,1.3,2.3,1.8,3.6c0.5,1.3,1,2.6,1,3.9c0,2.6,1,4.4,3.6,5.4c2.7,1.1,5.3,2.5,8,3.8
						c5.3,2.6,6.9,7.4,3.8,12.6c-1.3,2.2-3.1,4.1-4.6,6.2c-3,4.2-6.2,8.3-8.8,12.7c-3.1,5.3-2.3,7.7,1.6,12.3
						c3.8,4.6,7.8,9.1,10.8,14.3c3.6,6.1,2.9,7.8-3,11.7c-3.4,2.2-7.1,4.1-11,5.5c-2.6,0.9-3.4,2.1-3.3,4.8
						c0.4,9.1,0.5,18.3,0.7,27.4c0.1,9.2,0.1,18.5,0.2,27.7c0.1,3.8,0.3,7.6,0.6,11.4c0.1,0.8,0.9,1.6,1.5,2.4
						c1.1,1.4,2.8,2.6,3.4,4.3c1.3,3.6,3.7,5.2,7.2,5.9C271.6,316.3,272.8,317,273.9,317.5z"/>
				</g>
				<rect x="33.6" y="329.2" class="st40" width="294.2" height="9"/>
				<rect x="39" y="31" class="st38" width="283.4" height="32.9"/>
				<rect x="34.8" y="44.3" class="st37" width="291.8" height="6.2"/>
				<rect x="40.5" y="13.5" class="st38" width="280.4" height="67.8"/>
				<rect x="37.6" y="28" class="st37" width="286.3" height="38.8"/>
				<rect x="33.6" y="42.9" class="st40" width="294.2" height="9"/>
				<rect x="45.4" y="81.3" class="st49" width="270.7" height="235.2"/>
				<rect x="45.4" y="297.5" class="st37" width="270.7" height="31.8"/>
			</g>
			<rect x="45.4" y="81.9" class="st50" width="270.7" height="8.9"/>
			<rect x="37.6" y="338.7" class="st50" width="286.3" height="5.7"/>
			<rect x="37.6" y="51.9" class="st50" width="286.3" height="5.7"/>
			<rect x="40.5" y="66.7" class="st50" width="280.4" height="4.9"/>
		</g>
		<g>
			<path class="st38" d="M499.8,224.7h-11.7c0-2,0-3.6,0-5.1c0-0.9-0.1-2.2-0.3-3.1c-1-4-4.9-7.1-9-7c-4.3,0.2-8.1,3.2-8.7,7.4
				c-0.3,1.8-0.1,4.4-0.2,6.2c0,0.3,0,1.6,0,1.6h-11.7l-2,38h44.6L499.8,224.7z M472,224.7c0-2,0-4,0-5.6c0-1.3,0.4-2.9,1-4
				c1.6-2.7,4.8-4.1,7.8-3.3c3,0.7,5.2,4,5.3,7.1c0.1,1.7,0,3.8,0,5.8H472z"/>
			<path class="st38" d="M673.3,218.7h-11.7c0-2,0-4.1,0-5.7c0-1.1-0.1-2.5-0.3-3.6c-1-4.6-4.9-8.2-9-8c-4.3,0.2-8.1,3.7-8.7,8.5
				c-0.3,2.1-0.1,4.9-0.2,7.1c0,0.3,0,1.7,0,1.7h-11.7l-2,44h44.6L673.3,218.7z M645.4,218.7c0-2,0-4.5,0-6.3c0-1.5,0.4-3.3,1-4.6
				c1.6-3.1,4.8-4.7,7.8-3.8c3,0.9,5.2,4.5,5.3,8.1c0.1,2,0,4.6,0,6.6H645.4z"/>
			<rect x="541.9" y="193.2" class="st40" width="54.1" height="69.4"/>
			<path class="st40" d="M582.8,193.2h-27.7l0-0.5c0.2-6.6,5.5-11.7,12.1-11.7h3.6c6.6,0,11.9,5.1,12.1,11.7L582.8,193.2z
				 M556.2,192.2h25.6c-0.4-5.8-5.2-10.2-11-10.2h-3.6C561.4,182,556.6,186.4,556.2,192.2z"/>
			<rect x="368.2" y="29.8" class="st38" width="418.8" height="47.5"/>
			<rect x="362" y="24.1" class="st37" width="431.1" height="8.9"/>
			<rect x="358.4" y="18.4" class="st40" width="438.2" height="8.4"/>
			<rect x="358.2" y="77.6" class="st37" width="438.2" height="8.4"/>
			<g>
				<g>
					<rect x="608" y="105.4" class="st37" width="6.6" height="49.9"/>
					<rect x="631.7" y="105.4" class="st40" width="6.6" height="49.9"/>
					<rect x="614.6" y="94.8" class="st38" width="10.6" height="60.5"/>
					<rect x="638.7" y="97.1" class="st37" width="13.3" height="58.2"/>
					<rect x="651.7" y="103.2" class="st41" width="9" height="52.1"/>
					<rect x="660.5" y="115.4" class="st37" width="13.4" height="39.9"/>
					<rect x="673.9" y="101.6" class="st41" width="19.7" height="53.7"/>
					<rect x="625" y="110.2" class="st37" width="6.6" height="45.1"/>
				</g>
				
					<rect x="592.6" y="113.1" transform="matrix(0.9425 0.3341 -0.3341 0.9425 78.828 -191.6414)" class="st40" width="7.9" height="40.5"/>
			</g>
			<rect x="406.7" y="85.9" class="st51" width="346.5" height="177"/>
			<rect x="412.7" y="154.3" class="st38" width="328.8" height="6.6"/>
			<g>
				<rect x="377.8" y="99.9" class="st38" width="37.8" height="158.2"/>
				<rect x="391.7" y="99.9" class="st40" width="10.1" height="158.2"/>
				<rect x="375.7" y="85.7" class="st37" width="42.2" height="18.8"/>
				<rect x="375.7" y="244" class="st37" width="42.2" height="18.8"/>
				<rect x="739.4" y="99.9" class="st38" width="37.8" height="158.2"/>
				<rect x="753.3" y="99.9" class="st40" width="10.1" height="158.2"/>
				<rect x="737.2" y="85.7" class="st37" width="42.2" height="18.8"/>
				<rect x="737.2" y="244" class="st37" width="42.2" height="18.8"/>
			</g>
			<rect x="370.4" y="269.9" class="st38" width="414.3" height="98.1"/>
			<rect x="366" y="285.1" class="st37" width="423" height="56"/>
			<rect x="360" y="263" class="st40" width="434.7" height="13.1"/>
			<rect x="360.2" y="275.8" class="st41" width="434.7" height="9.3"/>
			<polygon class="st52" points="444.2,154.3 449,109.3 457.4,153.8 			"/>
			<polygon class="st38" points="493.6,154.3 458.5,154.3 449,109.3 484.1,109.3 			"/>
			<rect x="368.2" y="34" class="st50" width="418.8" height="4.9"/>
			<rect x="360.2" y="275.8" class="st50" width="434.5" height="3.3"/>
			<rect x="366" y="285.3" class="st50" width="423" height="3.3"/>
			<rect x="370.4" y="341.5" class="st50" width="414.3" height="4.8"/>
			<rect x="415.7" y="161.6" class="st53" width="323.7" height="6.8"/>
			<rect x="402.6" y="105.4" class="st50" width="13" height="4.8"/>
		</g>
		<rect x="377.8" y="105.4" class="st50" width="13" height="4.8"/>
		<rect x="391.7" y="105.1" class="st50" width="10.1" height="2.4"/>
		<rect x="739.8" y="105.4" class="st50" width="13" height="4.8"/>
		<rect x="763.8" y="105.4" class="st50" width="13" height="4.8"/>
		<rect x="752.9" y="105.4" class="st50" width="10.1" height="2.4"/>
	</g>
</g>
<g id="Calque_3">
</g>
</svg>
