<?xml version="1.0" encoding="utf-8"?>
<!-- Generator: Adobe Illustrator 19.1.0, SVG Export Plug-In . SVG Version: 6.00 Build 0)  -->
<svg version="1.1" xmlns="http://www.w3.org/2000/svg" xmlns:xlink="http://www.w3.org/1999/xlink" x="0px" y="0px"
	 viewBox="0 0 391.2 369" style="enable-background:new 0 0 391.2 369;" xml:space="preserve">
<style type="text/css">
	.st0{fill:#FFD880;}
	.st1{fill:#FFCCDC;stroke:#873566;stroke-width:2;stroke-miterlimit:10;}
	.st2{fill:#80D8FF;}
	.st3{fill:#B3B3FF;}
	.st4{fill:#FFF9EB;stroke:#806B35;stroke-width:2;stroke-miterlimit:10;}
	.st5{fill:#FFE8B6;stroke:#806B35;stroke-width:2;stroke-miterlimit:10;}
	.st6{fill:#B78937;stroke:#806B35;stroke-width:2;stroke-miterlimit:10;}
	.st7{fill:#BFA873;stroke:#806B35;stroke-width:2;stroke-miterlimit:10;}
	.st8{fill:#403C30;}
	.st9{opacity:0.5;fill:#696044;}
	.st10{fill:#FFE099;stroke:#806B35;stroke-width:2;stroke-miterlimit:10;}
	.st11{fill:none;stroke:#806B35;stroke-width:2;stroke-miterlimit:10;}
	.st12{fill:#CCB98F;stroke:#806B35;stroke-width:2;stroke-miterlimit:10;}
	.st13{fill:#8F7E56;stroke:#806B35;stroke-width:2;stroke-miterlimit:10;}
	.st14{fill:#FFDD88;stroke:#806B35;stroke-width:2;stroke-miterlimit:10;}
	.st15{opacity:0.5;fill:#46402E;}
	.st16{opacity:0.75;fill:#403C30;}
	.st17{opacity:0.5;fill:#403C30;}
	.st18{fill:#FFE8B3;stroke:#806B35;stroke-width:2;stroke-miterlimit:10;}
	.st19{opacity:0.75;fill:#6B5F41;}
	.st20{fill:#806B35;}
	.st21{fill:#433426;}
	.st22{fill:#A38541;}
	.st23{fill:#56492B;}
	.st24{fill:#BF607D;stroke:#873566;stroke-width:2;stroke-miterlimit:10;}
	.st25{fill:#FF80A7;stroke:#873566;stroke-width:2;stroke-miterlimit:10;}
	.st26{fill:#FF99B9;stroke:#873566;stroke-width:2;stroke-miterlimit:10;}
	.st27{fill:#FFB3CA;stroke:#873566;stroke-width:2;stroke-miterlimit:10;}
	.st28{fill:#FFD9E6;stroke:#873566;stroke-width:2;stroke-miterlimit:10;}
	.st29{opacity:0.5;fill:#873566;}
	.st30{fill:#60303F;stroke:#873566;stroke-width:2;stroke-miterlimit:10;}
	.st31{opacity:0.75;fill:#8F7E56;}
	.st32{fill:#80D8FF;stroke:#244959;stroke-width:2;stroke-miterlimit:10;}
	.st33{fill:#60A2BF;stroke:#244959;stroke-width:2;stroke-miterlimit:10;}
	.st34{fill:#99E0FF;stroke:#244959;stroke-width:2;stroke-miterlimit:10;}
	.st35{fill:#B3E8FF;stroke:#244959;stroke-width:2;stroke-miterlimit:10;}
	.st36{fill:#E6F7FF;stroke:#244959;stroke-width:2;stroke-miterlimit:10;}
	.st37{fill:#8686BF;stroke:#2D2D40;stroke-width:2;stroke-miterlimit:10;}
	.st38{fill:#5A5A80;stroke:#2D2D40;stroke-width:2;stroke-miterlimit:10;}
	.st39{fill:#B3B3FF;stroke:#2D2D40;stroke-width:2;stroke-miterlimit:10;}
	.st40{fill:#C2C2FF;stroke:#2D2D40;stroke-width:2;stroke-miterlimit:10;}
	.st41{fill:#E1E1FF;stroke:#2D2D40;stroke-width:2;stroke-miterlimit:10;}
	.st42{fill:#10272B;}
	.st43{opacity:0.5;fill:#295059;stroke:#244959;stroke-width:2;stroke-miterlimit:10;}
	.st44{opacity:0.5;fill:#10272B;}
	.st45{opacity:0.5;fill:#10272B;stroke:#10353C;stroke-miterlimit:10;}
	.st46{opacity:0.33;fill:#407284;stroke:#244959;stroke-width:2;stroke-miterlimit:10;}
	.st47{fill:#10272B;stroke:#244959;stroke-width:2;stroke-miterlimit:10;}
	.st48{opacity:0.5;fill:#331127;}
	.st49{opacity:0.5;fill:#C2C2FF;stroke:#2D2D40;stroke-width:2;stroke-miterlimit:10;}
	.st50{opacity:0.5;fill:#2D2D40;}
	.st51{opacity:0.75;fill:#5A5A80;stroke:#2D2D40;stroke-width:2;stroke-miterlimit:10;}
	.st52{fill:#2D2D40;}
	.st53{opacity:0.2;fill:#2D2D40;}
	.st54{fill:#295059;stroke:#244959;stroke-width:2;stroke-miterlimit:10;}
	.st55{fill:none;}
	.st56{fill:#873566;}
	.st57{fill:#994A64;stroke:#873566;stroke-width:2;stroke-miterlimit:10;}
	.st58{fill:#B24F72;stroke:#873566;stroke-width:2;stroke-miterlimit:10;}
</style>
<g id="Calque_1">
	<rect y="-2" class="st2" width="391.2" height="369"/>
</g>
<g id="Calque_2">
	<g>
		<path class="st42" d="M92.9,217.6c0.6-2.8,1.3-5.7,2.8-8.2c0.6-1,1.4-1.9,2.2-2.7c0-0.1,0-0.1,0-0.2c0-0.6,0.4-1.2,0.8-1.7
			c1-1.1,2.2-1.9,3.6-2.4c-1.1,0.4-2.2,0.5-3.3,0.2c-0.4-0.1-0.8-0.2-1-0.6c-0.3-0.5,0.1-1.1,0.5-1.5c1-1.1,2.3-1.8,3.6-2.4
			c4.6-2.2,9.6-3.5,14.7-3.6c0.3,0,0.6,0,0.9,0c-0.7-2.1-1.1-4.3-1.3-6.5c-0.1-1.3,0-2.6,0.1-3.8c-2.7-1.8-4.7-4.7-5.2-7.9
			c-0.3-1.5-0.2-3.1,0.7-4.3c0.4-0.5,0.9-0.9,1.4-1c0.6-0.1,1.3,0.2,1.8,0.5c1.3,0.8,2.2,2.2,2.7,3.6c-0.1-1,0.1-2.1,0.4-3.2
			c1.1-4,2.9-8,6.1-10.8c-0.1,0-0.1,0-0.2-0.1c-0.6,0.5-1.2,1-1.8,1.6l0,0.2c-1.9,1.2-4.4,1-6.3-0.1c-1.9-1.1-3.3-3-4-5.1
			c-0.9-2.5-0.8-5.5,1-7.3c1-1,2.3-1.5,3.7-1.8c1.1-0.2,2.3-0.3,3.4,0.1c0.2,0.1,0.5,0.2,0.7,0.3c0.2,0,0.4-0.1,0.6-0.1
			c-1.4-0.8-2.6-1.6-3.7-2.8c-1.8-1.9-2.9-4.6-2.3-7.2c0.1-0.5,0.3-1.1,0.7-1.5c0.9-1.2,2.6-1.6,4.1-1.4c-0.2-0.4-0.4-0.7-0.6-1.1
			c-1.5-3-1.9-6.7-0.5-9.8c0.7-1.5,1.9-2.9,3.4-3.1c1.3-0.2,2.7,0.5,3.6,1.4c0.9,1,1.5,2.2,2.1,3.4c0.2,0.5,0.4,1.1,0.7,1.6
			c0.2-1.1,0.7-2.2,1.5-3.1c1.2-1.3,3.2-2,4.8-1.3c1.6,0.7,2.5,2.5,3,4.2c0.5,1.5,0.9,3.1,1.1,4.7c0.4-0.8,0.9-1.6,1.6-2.2
			c1.1-0.9,2.9-1.2,4.1-0.3c1.3,0.9,1.5,2.7,1.5,4.3c0,2.1-0.1,4.2-0.4,6.3c0.7-1,1.5-1.9,2.4-2.7c1-0.9,2.4-1.6,3.7-1.3
			c1.1,0.3,1.9,1.2,2.3,2.3c0.3,1.1,0.3,2.3,0.1,3.4c-0.6,3.9-2.6,7.5-5.4,10.2c-0.8,0.8-1.7,1.4-2.7,2c2.6,0.4,5.2,1.3,7.4,2.8
			c3.2,2.2,5.6,5.6,6.7,9.3c0.5,1.6,0.8,3.3,0.9,5c2.3,2.7,3.9,6.1,4,9.6c-1.5-0.5-3.1-1-4.6-1.5c0,0.6,0,1.2,0,1.8
			c-0.2,6-1.9,11.8-4.2,17.3c-0.7,1.8-1.5,3.6-2.7,5.1c-1,1.4-2.4,2.5-3.8,3.4c2.4,1.8,4.3,4.2,5.6,6.9c0.9,1.9,1.3,4.5-0.3,5.8
			c-1.1,1-2.8,0.9-4.2,0.5c-0.2-0.1-0.5-0.2-0.7-0.3c1,3.6,2,7.2,3,10.8c1.4,5,2.7,10.3,1.1,15.2c-0.4,1.2-1.1,2.4-2.1,3
			c-0.8,0.5-1.8,0.6-2.8,0.4c1.5,9.5,5.7,18.4,9.8,27.1c-15.8,5.6-31.9,11.4-47.6,16.9C94.7,273.2,87.5,244.3,92.9,217.6z"/>
		<circle class="st36" cx="133.2" cy="182.5" r="8.3"/>
		<circle class="st36" cx="151.7" cy="185.9" r="7.8"/>
	</g>
	<path class="st42" d="M295,294.2c-0.5-0.1-0.9-0.3-1.4-0.6c-2.3-1.3-5-1.2-7.3-2.6c-2-1.1-3.6-2.6-5.1-4.2
		c-3.2-3.3-6.1-6.8-10.8-7.7c-3.5-0.7-6.5-0.1-10,0.3c-4.9,0.5-9.8,0.2-14.6,0.2c-5.1,0.1-10.9-1.2-15.7-2.5
		c-3-0.8-8.9-3.4-10.1-6.8c-0.9-2.3-0.1-3.8,2.2-4.4c0.9-0.3,2.1-0.1,2.7-0.9c0.9-1.3-0.4-6.6-0.5-8.2c-0.2-3.1-0.4-6.3-0.5-9.4
		c0-1.4,1.1-2.9,1.7-4.3c1.3-3.1,2.7-6.2,3.8-9.4c1.3-3.6,3.2-6.9,5-10.3c4.1-7.5,6.9-15.7,9.9-23.8c0.6-1.7-0.5-4.1-0.8-6.2
		c-0.4-3-0.8-6-1.3-9.1c-0.7-4.5,1.6-8.1,5.1-9.7c4.2-2,4-5.1,3.5-8.3c-0.6-4.2-2.1-8.3-3.1-12.4c-0.2-0.8,0-1.9,0.3-2.7
		c1.9-6.7,6.5-10.8,12.9-12.9c4.8-1.6,9.5-1.8,14.6-0.4c5.4,1.6,8.7,5.3,11,9.8c3.8,7.5,4.5,15.8,4.6,24.1c0.1,2.6,0.8,5.5,2.2,7.6
		c4.7,7.4,10.3,14,17.1,19.7c2.3,1.9,3.3,5.6,4.4,8.6c3.3,8.8,6.1,18,6.1,27.4c0,4.9-1.2,9.8-2.3,14.6c-1.7,6.9-4.3,13.7-5.5,20.7
		c0,0,0,0,0,0.1c-1,6.2-5.1,11.4-8.4,16.6C302.3,290.6,299.5,295.5,295,294.2z M254.2,210.2c-0.3-0.4-0.7-0.8-1-1.2
		c5.5-4.8,11-9.5,16.6-14.4c-3.4-0.4-6.6-0.7-9.6-1C258.3,198.7,256.3,204.5,254.2,210.2z"/>
	<rect x="67.6" y="151.4" class="st43" width="270.2" height="186.2"/>
	<rect x="89" y="151.3" class="st44" width="217.1" height="100"/>
	<rect x="89" y="150.7" class="st45" width="217.1" height="5.3"/>
	<rect x="80" y="80.6" class="st46" width="231.1" height="68.2"/>
	<rect x="82" y="146.1" class="st36" width="231.1" height="5.3"/>
	<rect x="0" y="61.8" class="st47" width="391.2" height="19.3"/>
	<g>
		<path class="st47" d="M96.6,343.4c14.8,0,27.1,10.8,29.5,24.9h10.7c0-22.2-18-40.1-40.1-40.1c-22.2,0-40.1,18-40.1,40.1h10.7
			C69.5,354.2,81.8,343.4,96.6,343.4z"/>
		<path class="st54" d="M96.6,343.4c-14.8,0-27.1,10.8-29.5,24.9h59C123.7,354.2,111.4,343.4,96.6,343.4z"/>
		<path class="st47" d="M300.4,343.4c14.8,0,27.1,10.8,29.5,24.9h10.7c0-22.2-18-40.1-40.1-40.1c-22.2,0-40.1,18-40.1,40.1h10.7
			C273.3,354.2,285.6,343.4,300.4,343.4z"/>
		<path class="st54" d="M300.4,343.4c-14.8,0-27.1,10.8-29.5,24.9h59C327.5,354.2,315.2,343.4,300.4,343.4z"/>
	</g>
	<g>
		<path class="st55" d="M306,102.5c0-7.1-5.4-12.9-12-12.9H101c-6.6,0-12,5.8-12,12.9l-0.2,100.2h-0.3V236c0,6.6,5.4,12,12,12h193.7
			c6.6,0,12-5.4,12-12v-33.3H306V102.5z"/>
		<path class="st36" d="M306.4,202.7V236c0,6.6-5.4,12-12,12H100.6c-6.6,0-12-5.4-12-12v-33.3H0v157.1h56.7
			c8-13.6,22.8-22.6,39.7-22.6c16.9,0,31.7,9.1,39.7,22.6h124c8-13.6,22.8-22.6,39.7-22.6c16.9,0,31.7,9.1,39.7,22.6h51.6V202.7
			H306.4z"/>
		<path class="st33" d="M88.5,202.1v0.6h0.3L89,102.5c0-7.1,5.4-12.9,12-12.9h193c6.6,0,12,5.8,12,12.9v100.2h0.3v-0.6h84.8V61.8
			h-6.3v0.8c0,3.6-2.9,6.5-6.5,6.5H11c-3.6,0-6.5-2.9-6.5-6.5v-0.8H0v140.3H88.5z"/>
		<rect x="0" y="202.1" class="st33" width="88.5" height="0.6"/>
		<rect x="306.4" y="202.1" class="st33" width="84.8" height="0.6"/>
	</g>
</g>
<g id="Calque_3">
</g>
</svg>
