<?xml version="1.0" encoding="utf-8"?>
<!-- Generator: Adobe Illustrator 19.1.0, SVG Export Plug-In . SVG Version: 6.00 Build 0)  -->
<svg version="1.1" id="Calque_1" xmlns="http://www.w3.org/2000/svg" xmlns:xlink="http://www.w3.org/1999/xlink" x="0px" y="0px"
	 viewBox="0 0 59.8 59.8" style="enable-background:new 0 0 59.8 59.8;" xml:space="preserve">
<style type="text/css">
	.st0{fill:#DBE9E8;}
	.st1{fill:#DD0000;}
	.st2{fill:#FFCE00;}
	.st3{fill:#FFFFFF;}
	.st4{fill:#0039A6;}
	.st5{fill:#D52B1E;}
	.st6{fill:#FFEF08;}
	.st7{fill:#DE1018;}
	.st8{fill:#CF142B;}
	.st9{fill:#00247D;}
	.st10{fill:#CE1235;}
	.st11{fill:#DE2A14;}
	.st12{fill:#FFDE03;}
	.st13{clip-path:url(#SVGID_2_);}
	.st14{fill:#DA0C15;enable-background:new    ;}
	.st15{fill:#239F3F;enable-background:new    ;}
	.st16{fill:#FEFEFE;}
	.st17{fill:#030303;}
	.st18{fill:#CD1326;enable-background:new    ;}
	.st19{fill:#505050;}
	.st20{fill:#C1C1C1;}
	.st21{fill:#B2B2B2;}
	.st22{fill:#DCDCDC;}
	.st23{fill:#D5D5D5;}
	.st24{fill:#E5E5E5;}
	.st25{fill:#D3D3D3;}
	.st26{fill:#D1D1D1;}
	.st27{fill:#E4E4E4;}
	.st28{fill:#E2E2E2;}
	.st29{fill:#CFCFCF;}
	.st30{fill:#ECECEC;}
	.st31{fill:#C4C4C4;}
	.st32{fill:#CECECE;}
	.st33{fill:#B3B3B3;}
	.st34{fill:#DFDFDF;}
	.st35{fill:#C6C6C6;}
	.st36{fill:#7D7D7D;}
	.st37{fill:#F6F6F6;}
	.st38{fill:#414141;}
	.st39{fill:#404040;}
	.st40{fill:#D8D8D8;}
	.st41{fill:#7E7E7E;}
	.st42{fill:#828282;}
	.st43{fill:#FDFDFD;}
	.st44{fill:#8D8D8D;}
	.st45{fill:#E9E9E9;}
	.st46{fill:#7C7C7C;}
	.st47{fill:#E1E1E1;}
	.st48{fill:#A0A0A0;}
	.st49{fill:#A5A5A5;}
	.st50{fill:#797979;}
	.st51{fill:#149439;enable-background:new    ;}
</style>
<g>
	<circle class="st0" cx="29.9" cy="29.9" r="29.9"/>
	<g>
		<path d="M20.6,54.4C11,50.6,4.2,41.3,4.2,30.4c0-10.9,6.8-20.2,16.4-24C20.6,22.4,20.6,38.4,20.6,54.4z"/>
		<path class="st6" d="M29.9,4.6c3.2,0,6.2,0.6,9.1,1.6c0,16.1,0,32.1,0,48.2c-2.8,1.1-5.9,1.6-9.1,1.6c-3.3,0-6.5-0.6-9.4-1.8
			c0-16,0-32,0-48C23.5,5.3,26.6,4.6,29.9,4.6z"/>
		<path class="st7" d="M55.7,30.4c0,11-6.9,20.4-16.7,24.1c0-16.1,0-32.1,0-48.2C48.7,9.9,55.7,19.3,55.7,30.4z"/>
	</g>
</g>
</svg>
