<?xml version="1.0" encoding="utf-8"?>
<!-- Generator: Adobe Illustrator 19.1.0, SVG Export Plug-In . SVG Version: 6.00 Build 0)  -->
<svg version="1.1" id="Calque_1" xmlns="http://www.w3.org/2000/svg" xmlns:xlink="http://www.w3.org/1999/xlink" x="0px" y="0px"
	 viewBox="0 0 59.8 59.8" style="enable-background:new 0 0 59.8 59.8;" xml:space="preserve">
<style type="text/css">
	.st0{fill:#DBE9E8;}
	.st1{fill:#DD0000;}
	.st2{fill:#FFCE00;}
	.st3{fill:#FFFFFF;}
	.st4{fill:#0039A6;}
	.st5{fill:#D52B1E;}
	.st6{fill:#FFEF08;}
	.st7{fill:#DE1018;}
	.st8{fill:#CF142B;}
	.st9{fill:#00247D;}
	.st10{fill:#CE1235;}
	.st11{fill:#DE2A14;}
	.st12{fill:#FFDE03;}
	.st13{clip-path:url(#SVGID_2_);}
	.st14{fill:#DA0C15;enable-background:new    ;}
	.st15{fill:#239F3F;enable-background:new    ;}
	.st16{fill:#FEFEFE;}
	.st17{fill:#030303;}
	.st18{fill:#CD1326;enable-background:new    ;}
	.st19{fill:#505050;}
	.st20{fill:#C1C1C1;}
	.st21{fill:#B2B2B2;}
	.st22{fill:#DCDCDC;}
	.st23{fill:#D5D5D5;}
	.st24{fill:#E5E5E5;}
	.st25{fill:#D3D3D3;}
	.st26{fill:#D1D1D1;}
	.st27{fill:#E4E4E4;}
	.st28{fill:#E2E2E2;}
	.st29{fill:#CFCFCF;}
	.st30{fill:#ECECEC;}
	.st31{fill:#C4C4C4;}
	.st32{fill:#CECECE;}
	.st33{fill:#B3B3B3;}
	.st34{fill:#DFDFDF;}
	.st35{fill:#C6C6C6;}
	.st36{fill:#7D7D7D;}
	.st37{fill:#F6F6F6;}
	.st38{fill:#414141;}
	.st39{fill:#404040;}
	.st40{fill:#D8D8D8;}
	.st41{fill:#7E7E7E;}
	.st42{fill:#828282;}
	.st43{fill:#FDFDFD;}
	.st44{fill:#8D8D8D;}
	.st45{fill:#E9E9E9;}
	.st46{fill:#7C7C7C;}
	.st47{fill:#E1E1E1;}
	.st48{fill:#A0A0A0;}
	.st49{fill:#A5A5A5;}
	.st50{fill:#797979;}
	.st51{fill:#149439;enable-background:new    ;}
</style>
<g>
	<circle class="st0" cx="29.9" cy="29.9" r="29.9"/>
	<g>
		<circle class="st11" cx="29.9" cy="29.9" r="25.7"/>
		<g>
			<path class="st12" d="M15.3,31.7c0-0.2,0.1-0.3,0.1-0.5c0.6-2,1.3-3.9,1.9-5.9c0-0.1,0-0.2,0.1-0.2c0.1-0.4,0.1-0.4-0.2-0.6
				c-1.7-1.3-3.5-2.5-5.2-3.8c-0.1-0.1-0.2-0.2-0.4-0.3c0.1-0.1,0.2-0.1,0.4-0.1c0.9,0,1.8,0,2.8,0c1.2,0,2.5,0,3.7,0
				c0.4,0,0.4,0,0.6-0.4c0.7-2,1.3-4.1,2-6.1c0-0.1,0.1-0.3,0.2-0.4c0.1,0.1,0.1,0.2,0.2,0.3c0.5,1.4,0.9,2.8,1.4,4.3
				c0.2,0.7,0.4,1.3,0.6,1.9c0.1,0.4,0.1,0.4,0.6,0.4c2.1,0,4.3,0,6.4,0c0.1,0,0.3,0,0.4,0.1c-0.1,0.2-0.2,0.2-0.3,0.3
				c-1.7,1.2-3.4,2.5-5.1,3.7c-0.4,0.3-0.4,0.3-0.2,0.8c0.6,2,1.3,4,2,6c0,0.1,0.1,0.3,0.1,0.4c-0.1,0-0.2-0.1-0.3-0.1
				c-1.6-1.2-3.2-2.3-4.8-3.5c-0.2-0.1-0.3-0.3-0.5-0.4c-0.3-0.2-0.3-0.2-0.5,0c-0.7,0.5-1.4,1-2.1,1.5c-1.1,0.8-2.2,1.6-3.2,2.4
				C15.5,31.5,15.5,31.6,15.3,31.7z"/>
			<path class="st12" d="M39.1,16.4c-0.2,0-0.2-0.2-0.2-0.3c-0.3-0.4-0.5-0.8-0.8-1.3c-0.3-0.5-0.2-0.4-0.7-0.3
				c-0.5,0.1-1,0.2-1.4,0.3c-0.1,0-0.2,0.1-0.3,0c0-0.1,0.1-0.2,0.1-0.2c0.3-0.4,0.7-0.8,1.1-1.2c0.3-0.4,0.3-0.4,0.1-0.8
				c-0.3-0.4-0.5-0.8-0.8-1.3c-0.1-0.1-0.1-0.2-0.1-0.3c0.1-0.1,0.2,0,0.3,0c0.5,0.2,1,0.4,1.5,0.6c0.3,0.1,0.3,0.1,0.6-0.1
				c0.4-0.4,0.7-0.8,1.1-1.2c0.1-0.1,0.1-0.2,0.3-0.2c0.1,0.1,0,0.2,0,0.3c0,0.5-0.1,1-0.1,1.6c0,0.4,0,0.4,0.4,0.6
				c0.5,0.2,0.9,0.4,1.4,0.6c0.1,0,0.2,0.1,0.3,0.2c0,0.1-0.1,0.1-0.2,0.1c-0.6,0.1-1.1,0.3-1.7,0.4c-0.3,0.1-0.4,0.1-0.4,0.5
				c0,0.5-0.1,1-0.1,1.4C39.1,16,39.1,16.2,39.1,16.4z"/>
			<path class="st12" d="M47.1,32.9c-0.3-0.2-0.5-0.3-0.8-0.5c-0.3-0.2-0.6-0.4-0.9-0.6c-0.2-0.2-0.3-0.2-0.5,0
				c-0.4,0.3-0.8,0.6-1.2,0.9c-0.1,0.1-0.1,0.1-0.2,0.2c0,0-0.1,0.1-0.2,0c-0.1,0-0.1-0.1,0-0.2c0.1-0.5,0.3-1,0.4-1.5
				c0-0.1,0-0.2,0.1-0.3c0.1-0.2,0-0.3-0.2-0.4c-0.5-0.3-0.9-0.6-1.4-0.9c-0.1-0.1-0.2-0.1-0.2-0.2c0.1-0.1,0.2-0.1,0.3-0.1
				c0.5,0,1.1,0,1.6-0.1c0.3,0,0.3,0,0.4-0.4c0.1-0.5,0.3-1,0.4-1.5c0-0.1,0-0.2,0.1-0.3c0.1,0.1,0.1,0.2,0.2,0.3
				c0.2,0.5,0.4,1,0.6,1.5c0.1,0.3,0.1,0.3,0.5,0.3c0.5,0,1,0,1.5,0c0.1,0,0.3,0,0.4,0c0,0.1-0.1,0.2-0.2,0.2
				c-0.4,0.3-0.8,0.7-1.3,1c-0.4,0.3-0.4,0.3-0.2,0.7c0.2,0.5,0.3,0.9,0.5,1.4C47.1,32.6,47.2,32.7,47.1,32.9z"/>
			<path class="st12" d="M41.9,20.5c0.1-0.1,0.2-0.2,0.3-0.2c0.5-0.3,1-0.5,1.5-0.7c0.3-0.1,0.3-0.1,0.2-0.5
				c-0.1-0.6-0.2-1.2-0.2-1.7c0-0.1,0-0.2,0-0.3c0.1,0,0.2,0.1,0.3,0.2c0.4,0.4,0.8,0.8,1.1,1.2c0.2,0.2,0.3,0.2,0.6,0.1
				c0.5-0.2,1-0.5,1.4-0.7c0.1,0,0.2-0.1,0.3-0.1c0.1,0.1,0,0.2-0.1,0.3c-0.3,0.5-0.5,1-0.8,1.5c-0.2,0.3-0.2,0.3,0.1,0.6
				c0.4,0.4,0.7,0.8,1.1,1.2c0.1,0.1,0.2,0.1,0.2,0.3c-0.1,0.1-0.2,0-0.3,0c-0.5-0.1-1-0.2-1.5-0.3c-0.5-0.1-0.5-0.1-0.7,0.3
				c-0.2,0.4-0.5,0.9-0.7,1.3c-0.1,0.1-0.1,0.2-0.2,0.3c-0.1-0.1-0.1-0.2-0.1-0.3c-0.1-0.5-0.1-1-0.2-1.6c-0.1-0.4-0.1-0.4-0.5-0.5
				c-0.5-0.1-1-0.2-1.4-0.3C42.2,20.6,42.1,20.6,41.9,20.5z"/>
			<path class="st12" d="M41.6,37.3c-0.1,0.1-0.2,0.1-0.4,0.2c-0.5,0.1-1,0.3-1.5,0.4c-0.4,0.1-0.4,0.1-0.4,0.5c0,0.5,0,1.1-0.1,1.6
				c0,0.1,0,0.2-0.1,0.3c-0.1,0-0.1-0.1-0.2-0.2c-0.3-0.5-0.6-0.9-0.9-1.4c-0.2-0.3-0.2-0.3-0.6-0.2c-0.5,0.1-1,0.3-1.5,0.4
				c-0.1,0-0.2,0.1-0.3,0.1c0-0.1,0.1-0.2,0.2-0.3c0.3-0.4,0.7-0.8,1-1.2c0.2-0.3,0.2-0.3,0-0.6c-0.3-0.4-0.6-0.9-0.9-1.3
				c-0.1-0.1-0.1-0.2-0.1-0.3c0.1,0,0.2,0,0.3,0.1c0.5,0.2,1,0.4,1.5,0.6c0.3,0.1,0.3,0.1,0.5-0.1c0.3-0.4,0.7-0.8,1-1.3
				c0.1-0.1,0.1-0.2,0.3-0.2c0.1,0.1,0,0.2,0,0.4c0,0.5,0,1-0.1,1.4c0,0.5,0,0.5,0.5,0.7c0.5,0.2,0.9,0.4,1.4,0.5
				C41.4,37.2,41.5,37.2,41.6,37.3z"/>
		</g>
	</g>
</g>
<g>
	<g>
		<defs>
			<circle id="SVGID_1_" cx="-50.4" cy="29.9" r="25.7"/>
		</defs>
		<clipPath id="SVGID_2_">
			<use xlink:href="#SVGID_1_"  style="overflow:visible;"/>
		</clipPath>
		<g class="st13">
			<g>
				<path class="st14" d="M12.3,34.4c1.6,2,3.1,4,5.1,5.7c0.4,0.3,0.7,0.6,0.7,1.1c-0.1,3.9,0.3,7.7-0.4,11.6
					c-0.3,1.6-0.9,2-2.4,1.5c-1.2-0.4-2.4-0.6-3.6-0.6c-2.6-0.1-5-0.8-7.6-1.2c-2.3-0.3-3.9-1.7-4.4-4.1c-0.2-1-0.6-1.7-1.6-2.2
					c-0.9-0.5-1.8-0.6-2.7,0c-0.6,0.4-1.3,0.6-2,1c-2.8,1.8-5.4,1.2-8-0.5c-1.2-0.8-2.6-1.4-3.6-2.6c-0.4-0.5-1.2-0.8-1.9-0.9
					c-1.8-0.3-2.9-1.5-3.6-3.1c-1-2.2-2.5-4-3.9-5.9c-0.4-0.5-0.8-1.1-1.3-1.6c-0.5-0.6-1.2-0.2-1.7-0.3c-0.6-0.1-1.4,0-1.1-1.1
					c0.3-0.3,0.7-0.4,1.1-0.4c2.4-0.3,4.8-0.2,7.2-0.2c1.8,0,3.7,0.1,5.6,0c1.8-0.1,3.6,0.1,5.4,0c2.1-0.1,4.1,0,6.2-0.1
					c1.8,0,3.6,0.1,5.4,0c2.2-0.2,4.4,0,6.6,0c1.7,0,3.5-0.4,5.3,0.1c0.8,0.2,1.6-0.1,2.3,0c0.4,0.2,0.7,0.4,0.6,0.9
					c-0.4,0.5-0.8,1-1,1.6C12.3,33.2,12.4,33.9,12.3,34.4z"/>
				<path class="st15" d="M-54.5-7.6c0.7-0.5,1,0.2,1.4,0.5c1.1,0.9,2.2,1.9,3.6,2.3c1.2,0.4,2.4,0.4,3.5-0.4c0.8-0.7,1.7-1.3,2.6-2
					c0.5-0.4,1.1-0.9,1.8-0.4c0.7,0.4,0.9,1.2,0.6,1.8c-0.6,1.4,0.2,2,1.2,2.6c1.2,0.7,2.2,1.6,2.6,3c0.3,1,1.2,1.4,2.1,1.6
					c1.6,0.3,2.9,1.1,4.2,2c2.4,1.6,5,2.4,7.9,1.6c1.4-0.4,2.9-0.7,4.4-0.5c0.9,0.1,1.1-0.3,0.9-1.1C-18.2,2.4-17.8,2.1-17,2
					c0.7-0.1,1.4-0.3,1.7-1.1c0.5-1.4,1.6-1.7,2.9-1.9c1-0.1,2-0.1,3-0.5c0.7-0.3,1.6-0.1,2.3,0.3c1.8,1.1,3.7,1.7,5.7,2.1
					c2.2,0.4,3.8,1.9,5.6,3c1,0.7,2,1.2,3.2,1.2c0.9,0,1.5,0.4,1.6,1.4c0.2,1.2,0.7,2.4,0.8,3.7c-0.3,0.3,0.3,1.3-0.8,1.1
					c0,0,0.1,0,0.1,0c0.6,0.1,0.5,0.6,0.4,1c0,0.2,0,0.3,0,0.5c-0.6,0.7-1,0.1-1.5-0.1c-0.5-0.3-1-0.4-1.5-0.5c-0.3,0-0.6,0-0.8,0
					c-0.9,1-1.4,0.2-2-0.4c-0.3-0.2-0.7-0.3-1-0.3c-1-0.1-2-0.1-2.9,0.1c-0.6,0.1-1,0.7-1.7,0.6c-0.7,0.5-1.4,0.4-2.1-0.2
					c-0.2-0.1-0.3-0.1-0.5-0.2c-1.1-0.3-2.3-0.6-3.4,0c0,0,0,0.1,0,0.1c0.6,0.4,0.8,0.9,0.7,1.6c-0.3,0.5-0.8,0.8-1.5,0.8
					c-0.6-0.2-1.5,0-1.6-1c-0.3-0.6-1.3-0.5-1.5-1.2c-0.3-0.3-0.7-0.4-1.1-0.4c-1,0-2-0.3-2.8,0.6c-0.3,0.6,0.1,1.6-0.9,1.9
					c-0.7,0.2-1.3,0-1.6-0.8c-0.5-0.3-0.9-0.7-1.3-1.2c-0.2-0.1-0.3-0.2-0.5-0.2c-0.1,0-0.2-0.1-0.3-0.1c-1.2-0.2-2.4-0.6-3.5,0.3
					c-0.1,0.2-0.1,0.3-0.1,0.5c0.3,0.6,0.5,1.2-0.1,1.8c-0.6,0.4-1.2,0.4-1.8-0.1c-0.2-0.3-0.2-0.6-0.2-1c0-0.5-0.1-0.9-0.7-1.1
					c-0.6-0.2-1.1-0.4-1.7-0.5c-1,0-2.1-0.3-3,0.4c-0.1,0.1-0.1,0.2-0.1,0.3c-0.1,0.3,0.1,0.5,0.1,0.8c0.1,0.4-0.1,0.6-0.3,0.9
					c-0.1,0.1-0.2,0.1-0.4,0.2c-0.6,0-1.1,0-1.2-0.7c0-0.4,0-0.9-0.5-1.2c-0.4-0.3-0.9,0-1.3-0.1c-0.3,0-0.6-0.1-0.9-0.2
					c-1.1-0.3-2.2-0.4-3.3-0.3c-0.6,0-1.2,0.2-1.8,0.5c-0.3,0.1-0.6-0.1-0.9-0.1c-0.5,0-1,0-1.5-0.2c-0.5-0.1-1.1-0.3-1.6-0.1
					c-0.7,0.2-1.2-0.1-1.7-0.5c-0.1-0.1-0.1-0.2-0.2-0.3c0-1.7-1.3-2-2.5-2.5c-0.2-0.2-0.4-0.4-0.4-0.6c0.1-0.9-0.7-1.2-1-1.9
					c-0.2-0.4-0.6-0.7-0.8-1.2c-0.8-1.7-1.2-3.5-2.6-4.8c-0.5-0.5-0.1-1.5-0.4-2.2c-0.2-0.8-0.4-1.7-0.7-2.5
					C-55.9-6.7-55.9-6.7-54.5-7.6z"/>
			</g>
		</g>
	</g>
</g>
</svg>
