<?xml version="1.0" encoding="utf-8"?>
<!-- Generator: Adobe Illustrator 19.1.0, SVG Export Plug-In . SVG Version: 6.00 Build 0)  -->
<svg version="1.1" id="Calque_1" xmlns="http://www.w3.org/2000/svg" xmlns:xlink="http://www.w3.org/1999/xlink" x="0px" y="0px"
	 viewBox="0 0 59.8 59.8" style="enable-background:new 0 0 59.8 59.8;" xml:space="preserve">
<style type="text/css">
	.st0{fill:#DBE9E8;}
	.st1{fill:#DD0000;}
	.st2{fill:#FFCE00;}
	.st3{fill:#FFFFFF;}
	.st4{fill:#0039A6;}
	.st5{fill:#D52B1E;}
	.st6{fill:#FFEF08;}
	.st7{fill:#DE1018;}
	.st8{fill:#CF142B;}
	.st9{fill:#00247D;}
	.st10{fill:#CE1235;}
	.st11{fill:#DE2A14;}
	.st12{fill:#FFDE03;}
	.st13{clip-path:url(#SVGID_2_);}
	.st14{fill:#DA0C15;enable-background:new    ;}
	.st15{fill:#239F3F;enable-background:new    ;}
	.st16{fill:#FEFEFE;}
	.st17{fill:#030303;}
	.st18{fill:#CD1326;enable-background:new    ;}
	.st19{fill:#505050;}
	.st20{fill:#C1C1C1;}
	.st21{fill:#B2B2B2;}
	.st22{fill:#DCDCDC;}
	.st23{fill:#D5D5D5;}
	.st24{fill:#E5E5E5;}
	.st25{fill:#D3D3D3;}
	.st26{fill:#D1D1D1;}
	.st27{fill:#E4E4E4;}
	.st28{fill:#E2E2E2;}
	.st29{fill:#CFCFCF;}
	.st30{fill:#ECECEC;}
	.st31{fill:#C4C4C4;}
	.st32{fill:#CECECE;}
	.st33{fill:#B3B3B3;}
	.st34{fill:#DFDFDF;}
	.st35{fill:#C6C6C6;}
	.st36{fill:#7D7D7D;}
	.st37{fill:#F6F6F6;}
	.st38{fill:#414141;}
	.st39{fill:#404040;}
	.st40{fill:#D8D8D8;}
	.st41{fill:#7E7E7E;}
	.st42{fill:#828282;}
	.st43{fill:#FDFDFD;}
	.st44{fill:#8D8D8D;}
	.st45{fill:#E9E9E9;}
	.st46{fill:#7C7C7C;}
	.st47{fill:#E1E1E1;}
	.st48{fill:#A0A0A0;}
	.st49{fill:#A5A5A5;}
	.st50{fill:#797979;}
	.st51{fill:#149439;enable-background:new    ;}
</style>
<g>
	<circle class="st0" cx="29.9" cy="29.9" r="29.9"/>
	<circle class="st3" cx="29.9" cy="29.9" r="25.8"/>
	<g>
		<defs>
			<circle id="SVGID_1_" cx="29.9" cy="29.9" r="25.7"/>
		</defs>
		<clipPath id="SVGID_2_">
			<use xlink:href="#SVGID_1_"  style="overflow:visible;"/>
		</clipPath>
		<g class="st13">
			<g>
				<path class="st14" d="M92.6,34.4c1.6,2,3.1,4,5.1,5.7c0.4,0.3,0.7,0.6,0.7,1.1c-0.1,3.9,0.3,7.7-0.4,11.6
					c-0.3,1.6-0.9,2-2.4,1.5c-1.2-0.4-2.4-0.6-3.6-0.6c-2.6-0.1-5-0.8-7.6-1.2c-2.3-0.3-3.9-1.7-4.4-4.1c-0.2-1-0.6-1.7-1.6-2.2
					c-0.9-0.5-1.8-0.6-2.7,0c-0.6,0.4-1.3,0.6-2,1c-2.8,1.8-5.4,1.2-8-0.5c-1.2-0.8-2.6-1.4-3.6-2.6c-0.4-0.5-1.2-0.8-1.9-0.9
					c-1.8-0.3-2.9-1.5-3.6-3.1c-1-2.2-2.5-4-3.9-5.9c-0.4-0.5-0.8-1.1-1.3-1.6c-0.5-0.6-1.2-0.2-1.7-0.3c-0.6-0.1-1.4,0-1.1-1.1
					c0.3-0.3,0.7-0.4,1.1-0.4c2.4-0.3,4.8-0.2,7.2-0.2c1.8,0,3.7,0.1,5.6,0c1.8-0.1,3.6,0.1,5.4,0c2.1-0.1,4.1,0,6.2-0.1
					c1.8,0,3.6,0.1,5.4,0c2.2-0.2,4.4,0,6.6,0c1.7,0,3.5-0.4,5.3,0.1c0.8,0.2,1.6-0.1,2.3,0c0.4,0.2,0.7,0.4,0.6,0.9
					c-0.4,0.5-0.8,1-1,1.6C92.5,33.2,92.7,33.9,92.6,34.4z"/>
				<path class="st15" d="M25.7-7.6c0.7-0.5,1,0.2,1.4,0.5c1.1,0.9,2.2,1.9,3.6,2.3c1.2,0.4,2.4,0.4,3.5-0.4c0.8-0.7,1.7-1.3,2.6-2
					c0.5-0.4,1.1-0.9,1.8-0.4c0.7,0.4,0.9,1.2,0.6,1.8c-0.6,1.4,0.2,2,1.2,2.6c1.2,0.7,2.2,1.6,2.6,3c0.3,1,1.2,1.4,2.1,1.6
					c1.6,0.3,2.9,1.1,4.2,2c2.4,1.6,5,2.4,7.9,1.6c1.4-0.4,2.9-0.7,4.4-0.5c0.9,0.1,1.1-0.3,0.9-1.1c-0.3-0.9,0.1-1.2,0.9-1.3
					c0.7-0.1,1.4-0.3,1.7-1.1c0.5-1.4,1.6-1.7,2.9-1.9c1-0.1,2-0.1,3-0.5c0.7-0.3,1.6-0.1,2.3,0.3c1.8,1.1,3.7,1.7,5.7,2.1
					c2.2,0.4,3.8,1.9,5.6,3c1,0.7,2,1.2,3.2,1.2c0.9,0,1.5,0.4,1.6,1.4c0.2,1.2,0.7,2.4,0.8,3.7c-0.3,0.3,0.3,1.3-0.8,1.1
					c0,0,0.1,0,0.1,0c0.6,0.1,0.5,0.6,0.4,1c0,0.2,0,0.3,0,0.5c-0.6,0.7-1,0.1-1.5-0.1c-0.5-0.3-1-0.4-1.5-0.5c-0.3,0-0.6,0-0.8,0
					c-0.9,1-1.4,0.2-2-0.4c-0.3-0.2-0.7-0.3-1-0.3c-1-0.1-2-0.1-2.9,0.1c-0.6,0.1-1,0.7-1.7,0.6c-0.7,0.5-1.4,0.4-2.1-0.2
					c-0.2-0.1-0.3-0.1-0.5-0.2c-1.1-0.3-2.3-0.6-3.4,0c0,0,0,0.1,0,0.1c0.6,0.4,0.8,0.9,0.7,1.6c-0.3,0.5-0.8,0.8-1.5,0.8
					c-0.6-0.2-1.5,0-1.6-1c-0.3-0.6-1.3-0.5-1.5-1.2c-0.3-0.3-0.7-0.4-1.1-0.4c-1,0-2-0.3-2.8,0.6c-0.3,0.6,0.1,1.6-0.9,1.9
					c-0.7,0.2-1.3,0-1.6-0.8c-0.5-0.3-0.9-0.7-1.3-1.2c-0.2-0.1-0.3-0.2-0.5-0.2c-0.1,0-0.2-0.1-0.3-0.1c-1.2-0.2-2.4-0.6-3.5,0.3
					c-0.1,0.2-0.1,0.3-0.1,0.5c0.3,0.6,0.5,1.2-0.1,1.8c-0.6,0.4-1.2,0.4-1.8-0.1c-0.2-0.3-0.2-0.6-0.2-1c0-0.5-0.1-0.9-0.7-1.1
					c-0.6-0.2-1.1-0.4-1.7-0.5c-1,0-2.1-0.3-3,0.4c-0.1,0.1-0.1,0.2-0.1,0.3c-0.1,0.3,0.1,0.5,0.1,0.8c0.1,0.4-0.1,0.6-0.3,0.9
					c-0.1,0.1-0.2,0.1-0.4,0.2c-0.6,0-1.1,0-1.2-0.7c0-0.4,0-0.9-0.5-1.2c-0.4-0.3-0.9,0-1.3-0.1c-0.3,0-0.6-0.1-0.9-0.2
					c-1.1-0.3-2.2-0.4-3.3-0.3c-0.6,0-1.2,0.2-1.8,0.5c-0.3,0.1-0.6-0.1-0.9-0.1c-0.5,0-1,0-1.5-0.2c-0.5-0.1-1.1-0.3-1.6-0.1
					c-0.7,0.2-1.2-0.1-1.7-0.5c-0.1-0.1-0.1-0.2-0.2-0.3c0-1.7-1.3-2-2.5-2.5c-0.2-0.2-0.4-0.4-0.4-0.6c0.1-0.9-0.7-1.2-1-1.9
					c-0.2-0.4-0.6-0.7-0.8-1.2C28,2.8,27.6,1,26.2-0.4c-0.5-0.5-0.1-1.5-0.4-2.2c-0.2-0.8-0.4-1.7-0.7-2.5
					C24.4-6.7,24.4-6.7,25.7-7.6z"/>
				<path class="st17" d="M44.8,33.1c-0.1,0-0.2,0-0.2,0.1c-1.2,0.4-2.3,1-3.5,1.3c-0.8,0.3-1,1-1.2,1.8c-0.5,1-1.1,1.8-2.4,1.4
					c-1.3,0-2.7-0.4-4-0.4c-1.2,0-2.1-0.6-3.1-1.3c-3.6-2.5-7.1-5.3-10.7-7.7c-0.7-0.5-1.5-0.9-2.2-1.3c-0.4-0.3-0.9-0.5-1.4-0.7
					c-0.4-0.2-0.5-0.5-0.2-0.8c0.4-0.3,0.8-0.2,1.2-0.2c8.1,0,16.1,0,24.2,0c0.6,0,0.8,0.5,1,0.9c0.2,0.9-0.1,1.8,0.3,2.7
					c0.4,0.8,1,1.5,1.4,2.3C44.1,31.8,45,32.2,44.8,33.1z"/>
				<path class="st18" d="M-3.5,8.8C-3.3,8.7-3,8.5-2.7,8.3c0.9-1.2,1.2-2.5,1.3-3.9l0,0c1.6,0.3,3.2,0.5,4.8-0.2
					C4.2,4.1,5.1,4.1,6,4.4C7.6,5,9.2,4.6,10.8,4c0.5-0.2,1-0.4,1.4-0.6c2.1-0.6,4.3-0.3,6.3-1c0.3-0.1,0.5,0,0.7,0.3
					c0.2,0.4,0.1,0.8-0.2,1.1c-0.6,0.7-1.3,1.2-2,1.8c-0.7,0.5-1,1.1-0.8,2.1c0.3,1.7,0,2-1.8,2.1c-3.7,0-7.5,0-11.2,0
					c-1.5,0-3,0-4.4,0.3c-0.6,0.1-1.3,0.1-1.9-0.2C-3.7,9.6-3.7,9.3-3.5,8.8z"/>
				<path class="st19" d="M-3,37.1c-0.5-0.1-1-0.2-1.5-0.3c-0.4-0.6-0.8-1.3-0.3-2.1c0.1-0.1,0.2-0.2,0.3-0.3
					c0.6-0.7,1.4-1.1,2.3-1.5c2.2-1,4.2-2.4,6.5-3c1.5,1.1,1.5,1.2,0.4,2.6C4.3,33,4,33.6,3.5,33.9C1.9,34.2,1,35.3,0,36.3
					C-0.9,37.2-1.8,37.5-3,37.1z"/>
				<path class="st22" d="M43,39.4c0.7,0.6,1.4,0.8,2.1,0.3c0.2,0.2,0.3,0.5,0.5,0.7c-1-0.2-2.2,0.4-2.9-0.7
					C42.5,39.4,42.7,39.4,43,39.4z"/>
				<path class="st25" d="M17.4,27.1c0.1-0.1,0.1-0.1,0.2-0.2c0.4,0.2,0.9,0.3,1.3,0.6c3.9,2.6,7.8,5.4,11.5,8.2
					C30.3,36,30.1,36,29.9,36c-2.7-2-5.5-4-8.2-6C20.3,29.1,18.8,28.1,17.4,27.1z"/>
				<path class="st26" d="M8.7,24.7C8.8,24.9,9,25,9.1,25.1c-1.5,0.6-3,1.2-4.6,1.8c-1.7,0.6-1.7,0.6-0.7,2.1c0,0.3-0.2,0.4-0.4,0.5
					c-1.6-0.4-2.2-1.6-1.4-2.8c1.8-1.1,3.9-1.3,5.8-2.2C8.1,24.2,8.5,24.4,8.7,24.7z"/>
				<path class="st27" d="M3.5,29.3c0.1-0.1,0.2-0.2,0.3-0.4c0.4,0.4,0.8,0.8,1.2,1.2c0.4,0.4,1,0.9,1.1,1.4c0.2,0.8-0.8,0.6-1.1,1
					C4.6,33,4.6,33.7,3.9,34c-0.2,0-0.6,0.3-0.6-0.3c0.8-0.5,1-1.4,1.5-2c0.4-0.6-0.3-1-0.7-1.5C3.6,30.1,3.3,29.8,3.5,29.3z"/>
				<path class="st29" d="M3.3,33.7c0.2,0.1,0.4,0.2,0.6,0.3c-1.6,0.4-2.7,1.6-3.9,2.7c-0.9,0.9-1.9,1.1-3,0.4
					c1.6,0.1,2.8-0.6,3.7-1.9C1.3,34.3,2.4,34,3.3,33.7z"/>
				<path class="st33" d="M37.6,37.6c-0.4,0.1-0.9,0.2-1.3,0.2c-1.4-0.1-2.9-0.1-4.3-0.4c0.3-0.6,1,0,1.4-0.3
					C34.8,37.1,36.2,37.2,37.6,37.6z"/>
				<path class="st28" d="M33.3,37.1c-0.4,0.3-0.9,0.2-1.4,0.3c-0.8-0.2-1.4-0.8-2.1-1.3c0.2-0.1,0.3-0.2,0.5-0.3
					C31.4,36.2,32.2,36.9,33.3,37.1z"/>
				<path class="st18" d="M22.4,2.3c0.7,0.2,1.3,0.3,2,0.3c0.7,0,1.3,0,1.8,0.7c0.2,0.4,0.7,0.3,1-0.1c0.5-0.4,0.9-0.1,1.1,0.4
					c0.2,0.4,0.2,1,0.7,1.2c0.8,0.8,1.5,1.6,2.1,2.6c0.1,0.1,0.2,0.2,0.2,0.3c0.1,0.2,0.3,0.3,0.5,0.4c1.3,0.3,1.9,1.2,2.1,2.4
					c0,0.1,0,0.1,0,0.2c0.2,0.2,0.3,0.5,0.3,0.8c-0.5,0.7-0.9,1.6-1.6,2.2c-0.2,0-0.5,0.1-0.7,0.1c-4.5,0-9,0-13.5,0
					c-0.6,0-1.1,0.1-1.7-0.2c-0.5-0.5-0.3-1.2-0.4-1.9c-0.1-1.1,0.1-2.2-0.1-3.3C16,8,16.1,7.6,16,7.1c-0.2-0.9,0.1-1.5,1.2-1.7
					c1-0.4,1.8-1.2,2.5-2C20.4,2.7,21.2,2.2,22.4,2.3z"/>
				<path class="st18" d="M3.5,29.3c0.2,0.3,0.4,0.6,0.6,0.9c-0.4,0.7-1.2,0.9-1.8,1.2c-2.3,1.1-4.4,2.5-6.9,3.3
					c0.2-2.2,0.8-4.4,0.6-6.7c0-0.1-0.1-0.3-0.1-0.4c0.1-1.4,0.1-2.9,0.2-4.3c0.1-0.3,0.2-0.5,0.5-0.6c1.3,1.7,3.3,2.3,5,3.3
					c0.4,0.2,0.7,0.5,0.6,1c-0.6,0.5-0.1,0.9,0.2,1.3C2.8,28.6,3.2,28.9,3.5,29.3z"/>
				<path class="st16" d="M-3.2,9.7c5.8,0,11.7,0,17.5,0c1,0,1.3,0.4,1.3,1.3c0,1-0.1,1.9-0.3,2.8c-0.1,1.3-0.8,1.9-2.1,2
					c-2.3,0.6-4.7,0.2-7,0.3c-1.6,0.1-3.2,0-4.8,0c-1.7,0-1.7,0-1.7-1.8c-0.1-0.8,0.9-0.8,0.9-1.5c-0.7,0-0.6,1-1.2,1
					C-3,13-3.2,12.8-3.2,9.7z"/>
				<path class="st17" d="M11.7,16.7c-1.4,0.9-2.8,1.7-4.2,2.6c-0.4,0.9-1.2,1.2-2,1.6c-0.9,0.5-1.8,1.1-2.6,1.7
					c-0.8,0.5-1.7,1.1-2.7,1c-1.3,0.1-2-1-3-1.4c-0.6-0.3-0.8-0.8-0.9-1.4c0,0,0,0,0,0c0-0.3,0-0.7,0-1c0.6,0,0.6-0.5,0.8-0.8
					c0.4-1.1,0.8-2.2,2.1-2.6c3.8,0,7.7,0,11.5,0C11,16.4,11.4,16.3,11.7,16.7z"/>
				<path class="st36" d="M-0.6,13.8c0.3-0.6-0.3-0.9-0.5-1.3c0.2-0.4,0.7-0.2,0.8-0.4c0.8-1.5,1.4,0.3,2.2,0.2c0.2,0,0.2,0.4,0,0.5
					C1.1,13,2,14.3,0.9,14.1c-0.5-0.1-0.8,0-1.2,0.3C-0.4,14.2-0.5,14-0.6,13.8z"/>
				<path class="st17" d="M-3.3,22.7c0-0.1,0-0.1,0-0.2c0.5-0.5,1,0,1.4,0.2c0.7,0.4,1.3,0.9,2.1,0.8c1-0.1,1.9-0.7,2.7-1.2
					c1.1-0.7,2.2-1.4,3.3-2c0.3-0.2,0.6-0.6,1.2-0.3c0.7,0.8,0.7,1.9,1.1,2.8c0.2,0.5,0.5,1.1,0.7,1.6c0,0.3-0.3,0.4-0.5,0.5l0,0
					c-2.1,0.7-4.2,1.7-6.4,2.2c-1.4-0.7-2.7-1.5-4.1-2.1C-2.9,24.4-3.4,23.8-3.3,22.7z"/>
				<path class="st37" d="M8.7,24.7c0.2-0.2,0.4-0.3,0.5-0.5c0.6-0.6,1.1-0.3,1.5,0.5C10,24.7,9.4,24.7,8.7,24.7z"/>
				<path class="st20" d="M16.6,13.3c0,0.1,0,0.2,0,0.3c-0.1,0.2-0.2,0.3-0.3,0.5c-0.1,0-0.2,0-0.3,0c0.1-1.9,0.1-3.7,0.2-5.6
					c0-0.1,0.1-0.1,0.1-0.2C16.8,9.9,16.4,11.6,16.6,13.3z"/>
				<path class="st41" d="M13.8,14.3c-0.6-0.3-1.3-0.4-2.2,0.3c0.5-1-0.7-1.8,0-2.2c0.5-0.3,0.7-1.4,1.5-0.9
					C14.2,12,14.7,12.9,13.8,14.3z"/>
				<path class="st36" d="M14.7,21.4c1.6,0.4,3.2,0.2,4.8,0.1c0.8,0,1-0.7,0.5-2c-0.5,0.3-0.1,1.3-0.9,1.4c-1.2,0-2.4,0.2-3.6-0.1
					c-0.3-0.1-0.2-0.4-0.1-0.6c0.2-0.3,0.5-0.6,0.7-0.9c0.5,0,0.5,0.2,0.3,0.6c1.1,0.3,2.2,0.7,2.8-0.9c0.4-1,1.2-0.6,1.9,0
					c0.5,1.1,0.7,2.3-0.1,3.4c-2.1,0-4.3,0-6.4,0c-0.9,0-1.7-0.1-2.2,0.9c-0.2,0.4-0.6,0.5-1.1,0.1c0.5-0.5,0.9-1,0.7-1.8
					c-0.1-0.4,0.2-0.8,0.7-0.4c0.6,0.5,0.8,0.3,1.3-0.3C14.6,19.8,14.4,21.2,14.7,21.4L14.7,21.4z"/>
				<path class="st42" d="M31.1,22.4c-1.2,0-2.4,0-3.6,0c-0.4,0-0.9,0.1-1.1-0.4c-0.1-0.6,0-1.1,0.5-1.5c0.3-0.2,0.9-0.2,0.7-0.9
					c-0.3-0.6,0.1-1,0.6-1.2c0.4-0.2,0.7,0.2,0.8,0.5c0-0.3-0.4-0.5-0.3-0.8c0.1-0.5,0.2-1.1,0.9-1c0.6,0,0.6,0.5,0.6,1
					c0,0.4,0,0.7,0,1c0-0.6,0-1.3-0.1-2c-0.1-0.8,0.3-1,1.2-1c0,1.7,0.4,3.3,0.3,5C31.6,21.5,31.7,22.1,31.1,22.4z"/>
				<path class="st43" d="M31,15.9c-0.4,0.4-0.5,0.8-0.5,1.4c0,1.3,0.1,2.5-0.2,3.8c-0.6-0.9-0.3-1.9-0.4-2.8c0-0.3,0.1-0.8-0.4-0.8
					c-0.4,0-0.4,0.5-0.4,0.8c0,0.9,0.2,1.9-0.1,3c-0.5-0.6-0.3-1.1-0.4-1.6c0-0.4,0.3-0.9-0.2-1c-0.6-0.1-0.7,0.4-0.8,0.8
					c-0.1-1.3,0.5-2.4,1.1-3.5c0.5-0.8,1.6,0.1,2.3-0.4C31.1,15.7,31.1,15.8,31,15.9z"/>
				<path class="st44" d="M16.4,19.8c-0.1-0.2-0.2-0.4-0.3-0.6c0.7-1,1.4-2.1,2.1-3.1c0.1-0.2,0.3-0.5,0.6-0.3
					c0.3,0.2,0.2,0.5,0,0.8C17.9,17.7,17.1,18.8,16.4,19.8z"/>
				<path class="st45" d="M31,15.9c0-0.1,0-0.2,0-0.3c0.9,0.5,0.3,1.5,0.7,2.1c0.8,1.5,0.5,3.1,0.1,4.7c-0.2,0-0.5,0-0.7,0
					C31.3,20.2,31.5,18.1,31,15.9z"/>
				<path class="st46" d="M22.1,17.5c0.7,0.8,0.2,1.6,0.2,2.5c0,0.7-0.2,1.6,1,1.7c0,0,0.1,0.3,0.1,0.5c-1.7,0.3-1.9,0.2-1.9-1.5
					c0-1,0.1-2.1,0.2-3.1C21.8,17.4,21.9,17.4,22.1,17.5z"/>
				<path class="st47" d="M22.1,17.5c-0.1,0-0.2,0-0.2,0c-0.4,1.6,0,3.3-0.2,4.9c-0.2,0-0.4,0-0.7,0c0-1.1,0.1-2.2,0.1-3.4
					c0.3-0.4,0.2-0.8,0.3-1.2C21.5,17.4,21.7,17.2,22.1,17.5z"/>
				<path class="st48" d="M21.6,22.4c0-1.6-0.3-3.3,0.2-4.9c0,1,0,2.1,0,3.1c-0.1,1.2,0.3,1.7,1.6,1.5
					C22.8,22.6,22.2,22.4,21.6,22.4z"/>
				<path class="st49" d="M31.8,22.4c0-1.6-0.1-3.1-0.1-4.7c0-0.1,0.1-0.2,0.1-0.2c0.1,0,0.2,0,0.2,0c0.5,0.9,0.3,1.8,0.2,2.8
					c-0.1,1,0.2,1.7,1.3,1.9c0,0.1,0,0.2,0,0.2C33,22.4,32.4,22.4,31.8,22.4z"/>
				<path class="st43" d="M14.7,21.4c1.5-0.6,3.1-0.1,4.6-0.3c0,0.1,0,0.2,0,0.3C17.8,21.4,16.3,21.4,14.7,21.4
					C14.7,21.4,14.7,21.4,14.7,21.4z"/>
				<path class="st50" d="M33.5,22.1c-1.1,0.2-1.6-0.2-1.5-1.4c0.1-1.1,0-2.2,0-3.2c0.7,0.4,0.5,1,0.5,1.6
					C32.5,20.2,32.3,21.4,33.5,22.1z"/>
				<path class="st51" d="M28.6,91.9c-0.4,0-0.7-0.3-0.9-0.7c-2.1-3.2-4.9-6-6.3-9.6c-1.1-2.8-3-4.6-5.3-6.2
					c-2.4-1.6-3.2-4.1-3.6-6.8c-0.4-3-1.2-5.8-3.2-8.1c-0.6-0.7-1.3-1.4-2.2-1.8c-1.3-0.5-2-1.5-2.2-2.9c-0.1-0.8-0.4-1.5-0.9-2.2
					C1.8,50.4-0.4,47-2.7,43.6c-0.5-0.8-1.1-1.6-2.2-1.7c-0.3,0-0.7-0.2-0.6-0.5c0.3-1.4,0.1-2.9,0.7-4.2c0.1-0.1,0.2-0.2,0.4-0.4
					c0.4-0.6,1-0.5,1.6-0.4c1.6,0.9,2.8-0.2,3.8-1.2c0.8-0.7,1.6-1.4,2.6-1.8C3.8,33.4,4,33.2,4.1,33c1.6-1.8,1.6-1.8-0.2-3.4
					c-0.2-0.2-0.4-0.3-0.5-0.5c-1-1.8-1-1.9,1-2.6c1.6-0.5,3.1-1.2,4.7-1.8c3-0.2,5.7,0.4,8.3,1.9c4.1,2.6,8,5.5,11.8,8.5
					c0.3,0.2,0.6,0.3,0.9,0.5c0.7,0.5,1.3,1.3,2.2,1.3c1.3,0.2,2.6,0.2,3.9,0.4c1.5,0,2.9,0.2,4.3,0.5c1,0.2,1.8,0.6,2.4,1.4
					c0.7,0.9,1.8,0.6,2.6,1.2c0.8,1.1,2,2,2.4,3.4c0.2,0.6,0.9,0.7,1.3,1.1c1,1,2.1,2,3.1,3c0.7,0.7,1.3,1.3,0.7,2.4
					c-0.2,0.4,0,0.8,0.3,1.1c1.3,1.7,2.3,3.6,3.5,5.3c0.9,0.1,1.7,0.4,2.1,1.3c0.4,1.1,1.4,1.9,2.1,2.9c0.7,0.2,1.3,0.8,2,1
					c0.6,0.6,1,1.4,1.9,1.8c0.7,0.7,1.6,0.9,2.6,1c1.3,0.1,2.5,0.4,3.7,0.5c2,0.1,3.9,0.5,4.8,2.6c0.4,1.9-0.2,3.8-0.5,5.6
					c-0.2,3.3-2.4,4.9-5.3,5.8c-1.4,0.4-2.8,0.9-4.2,1.4c-2,0.5-4,0.9-6,1.6c-0.1,0.1-0.2,0.1-0.4,0.1c-1.5,0-2.9,0.1-4.1,1
					c-0.4,0.1-0.9,0.2-1.3,0.4c-3.1-0.4-5.3,1-7.2,3.2c-0.9,1-1.2,2.5-2.4,3.2c-0.1,0-0.3,0.1-0.4,0c-1.1-0.7-2.3-0.6-3.5-0.9
					c-0.4-0.3-0.9-0.4-1.4-0.4c-0.6,0-1.2-0.1-1.8-0.3c-1.2-0.5-2.5-0.1-3.7,0.1c-0.9,0.2-1.8,0.3-2.7,0.1c-0.6-0.1-1.3-0.9-1.5,0.4
					C29.6,90.2,29.7,91.3,28.6,91.9z"/>
			</g>
		</g>
	</g>
</g>
</svg>
