<?xml version="1.0" encoding="utf-8"?>
<!-- Generator: Adobe Illustrator 19.1.0, SVG Export Plug-In . SVG Version: 6.00 Build 0)  -->
<svg version="1.1" id="Calque_1" xmlns="http://www.w3.org/2000/svg" xmlns:xlink="http://www.w3.org/1999/xlink" x="0px" y="0px"
	 viewBox="0 0 59.8 59.8" style="enable-background:new 0 0 59.8 59.8;" xml:space="preserve">
<style type="text/css">
	.st0{fill:#DBE9E8;}
	.st1{fill:#DD0000;}
	.st2{fill:#FFCE00;}
	.st3{fill:#FFFFFF;}
	.st4{fill:#0039A6;}
	.st5{fill:#D52B1E;}
	.st6{fill:#FFEF08;}
	.st7{fill:#DE1018;}
	.st8{fill:#CF142B;}
	.st9{fill:#00247D;}
	.st10{fill:#CE1235;}
	.st11{fill:#DE2A14;}
	.st12{fill:#FFDE03;}
	.st13{clip-path:url(#SVGID_2_);}
	.st14{fill:#DA0C15;enable-background:new    ;}
	.st15{fill:#239F3F;enable-background:new    ;}
	.st16{fill:#FEFEFE;}
	.st17{fill:#030303;}
	.st18{fill:#CD1326;enable-background:new    ;}
	.st19{fill:#505050;}
	.st20{fill:#C1C1C1;}
	.st21{fill:#B2B2B2;}
	.st22{fill:#DCDCDC;}
	.st23{fill:#D5D5D5;}
	.st24{fill:#E5E5E5;}
	.st25{fill:#D3D3D3;}
	.st26{fill:#D1D1D1;}
	.st27{fill:#E4E4E4;}
	.st28{fill:#E2E2E2;}
	.st29{fill:#CFCFCF;}
	.st30{fill:#ECECEC;}
	.st31{fill:#C4C4C4;}
	.st32{fill:#CECECE;}
	.st33{fill:#B3B3B3;}
	.st34{fill:#DFDFDF;}
	.st35{fill:#C6C6C6;}
	.st36{fill:#7D7D7D;}
	.st37{fill:#F6F6F6;}
	.st38{fill:#414141;}
	.st39{fill:#404040;}
	.st40{fill:#D8D8D8;}
	.st41{fill:#7E7E7E;}
	.st42{fill:#828282;}
	.st43{fill:#FDFDFD;}
	.st44{fill:#8D8D8D;}
	.st45{fill:#E9E9E9;}
	.st46{fill:#7C7C7C;}
	.st47{fill:#E1E1E1;}
	.st48{fill:#A0A0A0;}
	.st49{fill:#A5A5A5;}
	.st50{fill:#797979;}
	.st51{fill:#149439;enable-background:new    ;}
</style>
<g>
	<circle class="st0" cx="29.9" cy="29.9" r="29.9"/>
	<g>
		<path class="st8" d="M25.3,35c0,6.8,0,13.3,0,19.9c1.6,0.3,3.1,0.4,4.8,0.4c1.6,0,3.2-0.2,4.8-0.4c0-6.5,0-13,0-19.6
			c0.4-0.1,0.8-0.2,1.3-0.2c6.3,0,12.7,0,19,0c0.3-1.6,0.5-3.3,0.5-5.1c0-1.7-0.2-3.5-0.5-5.1c-6,0-12,0-18,0c-0.7,0-1.5,0-2.3,0
			c0-6.8,0-13.3,0-19.8c-1.6-0.3-3.1-0.4-4.8-0.4c-1.6,0-3.2,0.2-4.8,0.4c0,6.5,0,13,0,19.6c-0.4,0.1-0.8,0.2-1.3,0.2
			c-6.3,0-12.7,0-19,0c-0.3,1.6-0.5,3.4-0.5,5.1c0,1.7,0.2,3.4,0.5,5.1c5.9,0,11.9,0,17.8,0C23.6,35,24.4,35,25.3,35z"/>
		<path class="st3" d="M34.9,35.2c0,6.6,0,13.1,0,19.6c1-0.2,2-0.4,2.9-0.7c0-4.6,0-9.2,0-14.2c4,2.2,7.9,4.4,11.8,6.5
			c1.2-1.4,2.2-2.8,3.1-4.4c-1.9-1.1-3.8-2.2-5.7-3.3c2.4,0,4.7-0.5,7,0.5c0.5-1.4,1-2.8,1.3-4.2c-6.3,0-12.7,0-19,0
			C35.7,35,35.2,35.2,34.9,35.2z"/>
		<path class="st3" d="M25.3,24.6c0-6.6,0-13.1,0-19.6c-1,0.2-2,0.4-2.9,0.7c0,4.5,0,9.1,0,14.2c-4-2.2-7.9-4.3-11.7-6.5
			c-1.2,1.3-2.2,2.8-3,4.3c1.2,0.6,2.3,1.3,3.5,1.9c0.7,0.4,1.3,0.8,1.9,1.4c-2.3,0.2-4.5,0.6-6.8-0.4c-0.5,1.4-1,2.8-1.3,4.2
			c6.3,0,12.7,0,19,0C24.5,24.8,24.9,24.7,25.3,24.6z"/>
		<path class="st3" d="M22.4,39.9c0,5,0,9.7,0,14.3c0.9,0.3,1.9,0.5,2.9,0.7c0-6.5,0-13.1,0-19.9c-0.9,0-1.7,0-2.5,0
			c-5.9,0-11.9,0-17.8,0c0.5,2.6,1.5,5.1,2.8,7.3c2-1.1,4-2.1,6-3.2c1.9-1,4.3-0.6,6.7-0.4c-0.4,0.3-0.8,0.6-1.2,0.8
			c-3.2,1.8-6.5,3.6-9.7,5.3c0.4,0.5,0.8,1,1.2,1.5C14.5,44.3,18.4,42.1,22.4,39.9z"/>
		<path class="st3" d="M37.2,24.8c6,0,12,0,18,0c-0.5-2.6-1.5-5.1-2.8-7.3c-2,1.1-4,2.1-6,3.2c-1.8,1-4.3,0.6-6.4,0.8
			c0-0.2-0.1-0.4-0.1-0.7c0.9-0.5,1.8-1,2.7-1.5c2.7-1.5,5.4-3,8.1-4.5c-0.4-0.5-0.8-1-1.2-1.5c-3.8,2.1-7.7,4.3-11.8,6.5
			c0-5,0-9.6,0-14.2c-0.9-0.3-1.9-0.5-2.9-0.7c0,6.5,0,13.1,0,19.8C35.7,24.8,36.5,24.8,37.2,24.8z"/>
		<path class="st9" d="M37.8,54.1c4.6-1.4,8.7-4.2,11.8-7.7c-3.9-2.1-7.8-4.3-11.8-6.5C37.8,45,37.8,49.6,37.8,54.1z"/>
		<path class="st9" d="M10.6,46.4c3.1,3.6,7.1,6.3,11.8,7.7c0-4.6,0-9.2,0-14.3C18.4,42.1,14.5,44.3,10.6,46.4z"/>
		<path class="st9" d="M49.5,13.4c-3.1-3.6-7.1-6.3-11.8-7.7c0,4.6,0,9.2,0,14.2C41.8,17.7,45.7,15.5,49.5,13.4z"/>
		<path class="st9" d="M22.4,5.7c-4.6,1.4-8.7,4.1-11.7,7.7c3.9,2.1,7.8,4.3,11.7,6.5C22.4,14.8,22.4,10.3,22.4,5.7z"/>
		<path class="st8" d="M39.9,20.8c0,0.2,0.1,0.4,0.1,0.7c2.2-0.2,4.6,0.2,6.4-0.8c2-1,4-2.1,6-3.2c-0.5-0.9-1.1-1.8-1.7-2.6
			c-2.7,1.5-5.4,3-8.1,4.5C41.7,19.8,40.8,20.3,39.9,20.8z"/>
		<path class="st8" d="M20.3,38.8c-2.3-0.2-4.8-0.6-6.7,0.4c-2,1-4,2.1-6,3.2c0.5,0.9,1.1,1.8,1.7,2.6c3.2-1.8,6.5-3.6,9.7-5.3
			C19.6,39.4,19.9,39,20.3,38.8z"/>
		<path class="st8" d="M13.1,21c-0.6-0.6-1.3-1-1.9-1.4C10,19,8.8,18.4,7.6,17.7c-0.5,0.9-1,1.9-1.4,2.9C8.5,21.6,10.7,21.2,13.1,21
			z"/>
		<path class="st8" d="M46.9,38.7c1.9,1.1,3.8,2.2,5.7,3.3c0.5-0.9,0.9-1.8,1.3-2.8C51.6,38.2,49.3,38.7,46.9,38.7z"/>
	</g>
</g>
</svg>
